<svg xmlns="http://www.w3.org/2000/svg" xmlns:xlink="http://www.w3.org/1999/xlink" width="816" zoomAndPan="magnify" viewBox="0 0 612 395.999985" height="528" preserveAspectRatio="xMidYMid meet" version="1.2"><defs><clipPath id="32576be530"><path d="M 446 51.5 L 477 51.5 L 477 258 L 446 258 Z M 446 51.5 "/></clipPath><clipPath id="ca562e19e6"><path d="M 153 51.5 L 207 51.5 L 207 217 L 153 217 Z M 153 51.5 "/></clipPath></defs><g id="ebab167abb"><path style=" stroke:none;fill-rule:nonzero;fill:#beccc0;fill-opacity:1;" d="M 504.433594 270.285156 C 504.09375 268.625 504.09375 268.625 503.617188 266.941406 L 503.082031 265.058594 L 502.515625 263.121094 L 501.980469 261.210938 C 500.359375 255.578125 498.125 250.5 495.128906 245.472656 L 494.441406 244.316406 C 492.753906 241.515625 490.964844 238.894531 488.816406 236.421875 L 487.699219 235.132812 C 486.523438 233.8125 485.335938 232.503906 484.132812 231.210938 L 483.125 230.066406 C 478.378906 224.890625 471.523438 223.023438 465.085938 220.722656 C 463.089844 220.007812 461.097656 219.28125 459.109375 218.546875 L 458.046875 218.164062 C 456.578125 217.621094 455.578125 217.226562 454.457031 216.101562 C 453.421875 215.894531 452.378906 215.71875 451.332031 215.582031 L 450.8125 213.5 L 452.601562 212.617188 C 457.738281 210.039062 461.75 207.75 465.019531 202.898438 C 471.0625 193.558594 474.296875 181.347656 474.867188 170.28125 C 475.007812 162.511719 473.960938 155.167969 471.734375 147.722656 L 471.378906 146.5 C 470.582031 144.003906 469.484375 142.1875 467.777344 140.203125 C 466.949219 139.515625 466.949219 139.515625 465.921875 139.152344 C 464.214844 138.898438 462.898438 139.113281 461.222656 139.515625 C 458.925781 140.878906 457.761719 142.449219 456.441406 144.757812 C 454.347656 149.183594 453.9375 153.976562 453.414062 158.792969 L 453.265625 159.972656 C 452.867188 163.378906 452.820312 166.78125 452.769531 170.207031 C 452.59375 181.929688 451.542969 193.511719 450.289062 205.164062 C 449.296875 205.589844 448.300781 206.015625 447.304688 206.4375 L 445.625 207.152344 C 443.042969 208.15625 440.917969 208.4375 438.144531 208.039062 C 435.546875 207.695312 432.964844 207.703125 430.351562 207.667969 C 409.835938 207.390625 389.351562 204.453125 369.074219 201.515625 L 367.605469 201.300781 C 349.234375 198.628906 330.929688 195.511719 312.859375 191.230469 C 291.308594 186.152344 261.71875 183.820312 239.957031 189.011719 L 237.988281 189.394531 C 227.371094 191.535156 215.820312 194.847656 207.160156 201.515625 L 206.152344 202.285156 C 204.539062 203.523438 202.949219 204.785156 201.375 206.074219 C 200.183594 207.003906 199.164062 207.699219 197.789062 208.289062 C 198.535156 205.976562 199.777344 204.300781 201.433594 202.558594 C 202.550781 201.566406 203.726562 200.6875 204.945312 199.820312 L 205.914062 199.128906 C 208.371094 197.433594 210.445312 196.757812 213.40625 196.304688 L 213.925781 194.742188 C 210.75 194.90625 208.308594 195.894531 205.664062 197.59375 L 204.621094 198.292969 L 203.609375 198.964844 C 201.65625 200.320312 200.273438 201.691406 198.828125 203.597656 C 197.914062 204.40625 197.914062 204.40625 196.972656 205.03125 L 196.0625 205.675781 C 195.113281 206.292969 195.113281 206.292969 193.621094 206.726562 C 193.898438 203.972656 194.773438 201.757812 196.226562 199.429688 L 197.589844 198.125 C 198.277344 197.316406 198.277344 197.316406 198.828125 196.304688 C 199.144531 194.234375 199.074219 192.207031 198.992188 190.117188 L 198.957031 188.429688 C 198.925781 187.058594 198.882812 185.691406 198.828125 184.324219 L 198.308594 184.324219 C 197.496094 187.261719 197.269531 189.605469 197.460938 192.660156 C 197.546875 194.53125 197.546875 194.53125 197.265625 196.304688 C 196.371094 197.746094 195.394531 198.769531 194.164062 199.933594 C 192.609375 201.488281 191.925781 203.175781 191.019531 205.164062 L 189.976562 206.203125 C 188.695312 206.234375 188.695312 206.234375 187.375 205.683594 C 186.167969 204.402344 186.167969 204.402344 185.292969 203.078125 L 186.203125 201.515625 C 189.992188 194.832031 192.882812 188.019531 193.175781 180.25 C 193.152344 177.964844 192.761719 175.832031 192.257812 173.609375 L 191.984375 172.394531 C 191.035156 168.378906 189.558594 164.640625 187.894531 160.878906 L 189.457031 159.316406 C 188.878906 158.78125 188.878906 158.78125 188.292969 158.238281 C 185.171875 155.28125 182.625 152.335938 180.3125 148.699219 C 179.035156 146.710938 177.949219 145.066406 176.015625 143.667969 C 175.0625 143.1875 174.097656 142.734375 173.121094 142.300781 C 171.554688 141.496094 170.589844 140.5625 169.382812 139.289062 C 168.613281 138.496094 167.84375 137.703125 167.070312 136.910156 L 166.0625 135.875 C 164.335938 134.394531 162.75 133.46875 160.511719 132.949219 C 158.347656 132.554688 156.175781 132.230469 153.996094 131.914062 C 150.023438 131.332031 146.699219 130.445312 143.121094 128.574219 C 142.492188 128.257812 141.863281 127.945312 141.230469 127.628906 C 140.1875 127.109375 139.144531 126.585938 138.101562 126.058594 C 135.386719 124.691406 132.648438 123.378906 129.878906 122.128906 L 128.742188 121.601562 C 126.175781 120.453125 123.550781 119.488281 120.734375 119.199219 C 119.558594 119.433594 119.558594 119.433594 118.652344 119.71875 C 120.230469 120.253906 121.808594 120.769531 123.40625 121.25 C 130.980469 123.59375 138.550781 126.875 145.023438 131.507812 C 147.691406 133.070312 150.570312 133.390625 153.597656 133.6875 C 157.972656 134.238281 162.242188 135.296875 165.855469 137.917969 C 166.898438 138.839844 167.855469 139.839844 168.730469 140.917969 C 171.214844 143.824219 174.070312 146.367188 177.050781 148.757812 C 181.347656 152.25 183.726562 156.882812 185.8125 161.917969 C 186.109375 162.597656 186.410156 163.277344 186.710938 163.953125 L 187.203125 165.066406 C 187.527344 165.796875 187.851562 166.527344 188.175781 167.253906 C 190.796875 173.21875 191.484375 178.851562 191.019531 185.363281 C 190.121094 189.9375 188.21875 193.90625 185.8125 197.867188 L 185.203125 198.898438 C 184.640625 199.84375 184.640625 199.84375 183.730469 200.996094 L 182.167969 201.515625 L 182.070312 199.625 C 181.847656 197.96875 181.601562 197.277344 180.671875 195.816406 C 178.472656 193.464844 175.835938 191.523438 173.316406 189.53125 C 172.878906 189.160156 172.441406 188.785156 171.992188 188.402344 C 170.730469 187.460938 169.773438 187.023438 168.273438 186.601562 C 166.441406 186.078125 166.441406 186.078125 164.988281 184.84375 C 163.632812 184.511719 163.632812 184.511719 162.058594 184.257812 L 160.476562 183.992188 L 159.261719 183.800781 L 159.78125 184.84375 C 160.542969 185.222656 161.3125 185.582031 162.09375 185.917969 C 169.691406 189.632812 175.417969 197.605469 180.605469 204.121094 L 180.085938 204.640625 L 179.046875 204.121094 L 179.046875 206.726562 L 177.515625 207.3125 C 173.894531 208.871094 170.78125 211.121094 168.113281 214.019531 L 166.941406 215.0625 C 166.03125 216.101562 166.03125 216.101562 165.640625 217.535156 L 165.507812 218.707031 L 168.113281 219.230469 L 168.242188 218.253906 L 168.632812 217.144531 C 169.542969 216.582031 169.542969 216.582031 170.714844 216.101562 L 172.242188 214.964844 L 173.839844 214.019531 C 175.605469 214.101562 177.015625 214.664062 178.523438 215.582031 L 179.046875 216.625 L 177.875 217.078125 C 176.441406 217.667969 176.441406 217.667969 175.488281 218.1875 C 174.167969 218.796875 172.960938 219.023438 171.527344 219.261719 C 169.6875 219.570312 167.855469 219.894531 166.03125 220.269531 L 165.507812 219.230469 C 164.628906 219.359375 164.628906 219.359375 163.425781 219.75 L 162.125 220.824219 L 160.824219 221.835938 L 158.742188 221.835938 L 158.285156 220.042969 L 157.699219 218.1875 L 156.65625 217.667969 C 156.558594 218.839844 156.558594 218.839844 156.65625 220.269531 C 157.15625 220.984375 157.675781 221.679688 158.21875 222.355469 C 158.585938 223.472656 158.585938 223.472656 158.742188 224.4375 L 157.4375 224.730469 C 155.371094 225.582031 154.179688 226.671875 152.554688 228.167969 C 151.503906 229.085938 150.449219 229.816406 149.273438 230.5625 C 147.207031 231.890625 145.363281 233.414062 143.511719 235.023438 C 137.265625 240.382812 130.832031 244.054688 123.339844 247.363281 L 121.992188 247.957031 C 116.558594 250.347656 111.074219 252.609375 105.550781 254.789062 C 103.285156 255.683594 101.066406 256.628906 98.867188 257.683594 C 96.027344 259.023438 93.078125 259.730469 90.019531 260.386719 C 91.480469 261.207031 92.570312 261.59375 94.25 261.625 C 101.253906 261.449219 107.746094 259.144531 114 256.167969 C 114.976562 255.71875 115.960938 255.292969 116.957031 254.890625 C 121.304688 253.109375 125.328125 250.960938 129.390625 248.601562 C 133.164062 246.414062 136.710938 244.566406 140.875 243.242188 C 146.886719 241.257812 152.601562 238.269531 158.21875 235.378906 L 157.699219 241.109375 C 159.222656 239.585938 160.128906 238.179688 161.199219 236.339844 C 161.882812 235.230469 161.882812 235.230469 163.425781 234.339844 C 164.640625 234.296875 165.855469 234.292969 167.070312 234.339844 L 167.589844 235.378906 L 168.828125 235.171875 L 170.488281 234.890625 L 172.226562 234.597656 C 173.386719 234.410156 174.554688 234.265625 175.726562 234.140625 C 178.199219 233.683594 180.382812 232.710938 182.691406 231.734375 C 183.664062 231.339844 184.640625 230.949219 185.617188 230.5625 L 187.894531 229.648438 C 187.410156 230.472656 186.921875 231.300781 186.429688 232.125 L 185.609375 233.515625 C 184.816406 234.851562 184.816406 234.851562 183.886719 235.941406 L 183.210938 236.941406 L 183.210938 239.027344 L 184.773438 239.546875 L 185.8125 240.589844 L 186.429688 239.449219 C 187.316406 237.925781 187.316406 237.925781 188.707031 236.8125 C 190.007812 235.347656 190.257812 234.71875 190.660156 232.871094 C 190.789062 232.148438 190.914062 231.421875 191.019531 230.691406 C 191.988281 230.355469 191.988281 230.355469 193.101562 230.171875 L 194.566406 230.917969 C 196.226562 231.734375 196.226562 231.734375 197.917969 231.992188 C 200.589844 231.636719 202.871094 230.691406 205.078125 229.128906 C 206.257812 227.636719 206.734375 226.320312 207.039062 224.476562 C 207.148438 223.714844 207.253906 222.953125 207.355469 222.191406 C 207.878906 218.707031 208.648438 216.355469 210.804688 213.5 L 210.804688 212.457031 L 211.886719 212.054688 C 213.632812 211.320312 215.261719 210.421875 216.914062 209.503906 C 220.847656 207.367188 224.882812 205.570312 229.023438 203.871094 C 230.171875 203.398438 231.316406 202.917969 232.457031 202.433594 C 238.640625 199.855469 244.414062 198.78125 251.121094 198.550781 L 252.882812 198.492188 C 276.839844 197.839844 300.679688 199.371094 324.085938 204.65625 C 333.703125 206.824219 343.328125 208.824219 353.0625 210.371094 L 354.34375 210.578125 C 357.34375 211.050781 360.34375 211.496094 363.347656 211.933594 L 364.972656 212.175781 C 374.199219 213.527344 383.4375 214.757812 392.695312 215.875 L 394.660156 216.113281 C 403.710938 217.210938 412.757812 218.167969 421.855469 218.765625 C 425.492188 219.011719 429.039062 219.378906 432.628906 220.027344 C 435.964844 220.558594 439.351562 220.6875 442.722656 220.902344 C 446.808594 221.183594 450.851562 221.484375 454.652344 223.105469 C 456.695312 225.101562 457.292969 227.464844 458.101562 230.171875 C 458.582031 232.359375 458.941406 234.566406 459.304688 236.78125 C 460.4375 243.042969 461.730469 248.886719 465.800781 253.925781 C 467.144531 255.488281 468.527344 256.941406 470.074219 258.304688 L 471.636719 258.824219 L 471.636719 259.867188 C 472.453125 260.601562 473.308594 261.300781 474.175781 261.984375 C 476.152344 263.5625 478.054688 265.171875 479.902344 266.898438 C 482.835938 269.574219 486.042969 271.738281 489.335938 273.933594 L 490.734375 274.902344 L 491.972656 275.757812 L 493.03125 276.488281 C 494.792969 277.5 496.445312 277.660156 498.449219 277.679688 L 499.636719 277.699219 C 500.945312 277.566406 501.757812 277.226562 502.875 276.539062 C 504.546875 274.445312 504.558594 272.910156 504.433594 270.285156 M 200.910156 216.101562 L 198.828125 215.582031 L 198.308594 212.976562 C 199.359375 213.351562 199.359375 213.351562 200.390625 214.019531 C 200.808594 215.085938 200.808594 215.085938 200.910156 216.101562 M 184.25 223.917969 C 183.222656 225.507812 182.039062 226.847656 180.605469 228.085938 C 179.054688 228.761719 177.601562 228.992188 175.921875 229.128906 L 173.902344 229.289062 L 172.277344 229.128906 C 171.398438 228.371094 171.398438 228.371094 170.714844 227.566406 C 171.972656 226.878906 173.230469 226.195312 174.488281 225.511719 L 175.566406 224.925781 L 176.613281 224.359375 L 177.570312 223.839844 C 179.792969 222.808594 181.820312 222.828125 184.25 222.875 Z M 182.167969 220.792969 L 179.566406 221.3125 L 179.046875 219.230469 L 180.605469 218.707031 L 182.167969 219.75 Z M 177.484375 197.347656 C 175.84375 196.90625 175.84375 196.90625 174.523438 195.652344 L 173.316406 194.222656 C 173.097656 192.808594 173.097656 192.808594 173.316406 191.617188 C 174.75 192.179688 175.5 192.761719 176.570312 193.894531 L 177.484375 195.261719 Z M 176.960938 231.734375 C 175.675781 231.554688 175.675781 231.554688 174.359375 231.210938 L 173.839844 230.171875 C 175.125 230.347656 175.125 230.347656 176.441406 230.691406 Z M 175.402344 223.398438 C 173.550781 225.246094 171.628906 225.996094 169.199219 226.773438 C 168.046875 227.105469 168.046875 227.105469 166.550781 227.042969 L 167.070312 225.480469 C 169.613281 223.824219 172.355469 222.597656 175.402344 222.355469 Z M 169.671875 231.734375 C 167.792969 232.863281 165.972656 233.082031 163.816406 233.359375 L 161.824219 233.625 L 160.300781 233.816406 C 161.523438 232.429688 162.699219 231.777344 164.402344 231.082031 L 165.734375 230.519531 C 167.082031 230.074219 167.082031 230.074219 168.539062 230.375 C 168.914062 230.476562 169.289062 230.582031 169.671875 230.691406 Z M 169.152344 222.355469 C 168.117188 223.550781 168.117188 223.550781 166.550781 224.4375 C 165.113281 224.613281 163.84375 224.539062 162.386719 224.4375 L 162.386719 223.398438 C 163.121094 223.042969 163.859375 222.699219 164.597656 222.355469 L 165.84375 221.769531 C 167.179688 221.191406 167.179688 221.191406 169.152344 221.3125 Z M 157.179688 231.210938 C 152.929688 233.988281 148.582031 236.539062 144.164062 239.027344 L 144.164062 237.464844 C 146.40625 235.058594 148.910156 233.683594 151.84375 232.285156 L 152.886719 231.785156 C 153.777344 231.375 154.695312 231.027344 155.617188 230.691406 Z M 157.179688 231.210938 "/><path style=" stroke:none;fill-rule:nonzero;fill:#aacca9;fill-opacity:1;" d="M 504.433594 270.285156 C 504.09375 268.625 504.09375 268.625 503.617188 266.941406 L 503.082031 265.058594 L 502.515625 263.121094 L 501.980469 261.210938 C 500.359375 255.578125 498.125 250.5 495.128906 245.472656 L 494.441406 244.316406 C 492.753906 241.515625 490.964844 238.894531 488.816406 236.421875 L 487.699219 235.132812 C 486.523438 233.8125 485.335938 232.503906 484.132812 231.210938 L 483.125 230.066406 C 478.378906 224.890625 471.523438 223.023438 465.085938 220.722656 C 463.089844 220.007812 461.097656 219.28125 459.109375 218.546875 L 458.046875 218.164062 C 456.578125 217.621094 455.578125 217.226562 454.457031 216.101562 C 453.421875 215.894531 452.378906 215.71875 451.332031 215.582031 L 450.8125 213.5 L 452.601562 212.617188 C 457.738281 210.039062 461.75 207.75 465.019531 202.898438 C 471.0625 193.558594 474.296875 181.347656 474.867188 170.28125 C 475.007812 162.511719 473.960938 155.167969 471.734375 147.722656 L 471.378906 146.5 C 470.582031 144.003906 469.484375 142.1875 467.777344 140.203125 C 466.949219 139.515625 466.949219 139.515625 465.921875 139.152344 C 464.214844 138.898438 462.898438 139.113281 461.222656 139.515625 C 458.925781 140.878906 457.761719 142.449219 456.441406 144.757812 C 454.347656 149.183594 453.9375 153.976562 453.414062 158.792969 L 453.265625 159.972656 C 452.867188 163.378906 452.820312 166.78125 452.769531 170.207031 C 452.59375 181.929688 451.542969 193.511719 450.289062 205.164062 C 449.296875 205.589844 448.300781 206.015625 447.304688 206.4375 L 445.625 207.152344 C 443.042969 208.15625 440.917969 208.4375 438.144531 208.039062 C 435.546875 207.695312 432.964844 207.703125 430.351562 207.667969 C 412.285156 207.425781 394.296875 205.015625 376.425781 202.496094 L 375.007812 202.296875 C 374.140625 202.175781 373.273438 202.050781 372.40625 201.925781 C 370.070312 201.597656 367.789062 201.316406 365.429688 201.515625 L 364.386719 203.078125 C 364.386719 204.121094 364.386719 204.121094 364.90625 205.164062 C 374.152344 210.398438 388.402344 211.144531 398.832031 211.464844 L 400.113281 211.445312 L 401.4375 211.433594 L 402.394531 211.414062 L 402.914062 212.457031 L 405.515625 211.933594 L 405.515625 212.976562 L 408.640625 212.457031 L 408.640625 214.019531 L 409.882812 214.15625 C 411.746094 214.359375 413.609375 214.5625 415.472656 214.769531 L 417.425781 214.980469 L 419.316406 215.1875 L 421.050781 215.378906 C 422.648438 215.582031 424.238281 215.820312 425.820312 216.101562 L 425.820312 217.144531 C 430.746094 220.390625 436.132812 220.472656 441.824219 220.898438 C 442.800781 220.972656 443.777344 221.050781 444.753906 221.128906 C 445.6875 221.207031 446.621094 221.273438 447.554688 221.332031 C 450.207031 221.546875 452.28125 222.09375 454.648438 223.3125 C 455.601562 223.992188 456.101562 224.644531 456.699219 225.644531 C 458.3125 229.460938 458.796875 233.777344 459.457031 237.851562 C 460.460938 243.613281 462.066406 249.332031 465.804688 253.949219 C 467.152344 255.496094 468.535156 256.945312 470.074219 258.304688 L 471.636719 258.824219 L 471.636719 259.867188 C 472.453125 260.601562 473.308594 261.300781 474.175781 261.984375 C 476.152344 263.5625 478.054688 265.171875 479.902344 266.898438 C 482.832031 269.574219 486.042969 271.738281 489.335938 273.933594 L 490.734375 274.902344 L 491.972656 275.757812 L 493.03125 276.488281 C 494.792969 277.5 496.445312 277.660156 498.449219 277.679688 L 499.636719 277.699219 C 500.945312 277.566406 501.757812 277.226562 502.875 276.539062 C 504.546875 274.445312 504.558594 272.910156 504.433594 270.285156 "/><path style=" stroke:none;fill-rule:nonzero;fill:#3e6c1f;fill-opacity:1;" d="M 501.3125 277.058594 C 501.484375 273.367188 501.144531 270.136719 499.527344 266.824219 C 499.054688 265.929688 498.566406 265.050781 498.078125 264.167969 C 497.105469 262.46875 497.105469 262.46875 496.339844 260.574219 C 495.695312 259.078125 495.03125 257.894531 494.085938 256.578125 C 492.414062 254.148438 491.113281 251.59375 489.859375 248.925781 L 487.773438 248.925781 L 487.253906 246.84375 L 486.214844 246.84375 L 486.019531 245.734375 C 485.671875 244.144531 485.164062 242.652344 484.652344 241.109375 L 484.652344 240.070312 L 483.464844 240.253906 L 482.046875 240.070312 C 481 238.78125 481 238.78125 480.195312 237.105469 C 478.789062 234.449219 477.511719 232.117188 475.089844 230.273438 C 471.535156 228.128906 471.535156 228.128906 469.226562 227.890625 L 467.992188 228.085938 C 466.644531 231.160156 465.648438 234.074219 465.125 237.398438 C 464.902344 238.652344 464.902344 238.652344 463.828125 240.070312 L 462.785156 240.070312 C 461.644531 237.144531 461.644531 237.144531 461.222656 234.078125 C 461.222656 229.472656 458.253906 224.703125 456.015625 220.792969 C 455.023438 219.394531 454.308594 218.679688 452.894531 217.667969 C 451.398438 217.730469 451.398438 217.730469 450.289062 218.1875 L 450.289062 219.230469 L 451.851562 220.269531 L 453.414062 220.269531 L 453.855469 221.195312 C 454.414062 222.273438 455.035156 223.214844 455.722656 224.210938 C 457.78125 227.523438 458.4375 231.0625 459.050781 234.878906 C 460.15625 241.738281 461.324219 248.394531 465.800781 253.933594 C 467.148438 255.492188 468.53125 256.941406 470.074219 258.304688 L 471.636719 258.824219 L 471.636719 259.867188 C 472.453125 260.601562 473.308594 261.300781 474.175781 261.984375 C 476.152344 263.5625 478.054688 265.171875 479.902344 266.898438 C 482.832031 269.574219 486.042969 271.738281 489.335938 273.933594 L 490.734375 274.902344 L 491.972656 275.757812 L 493.03125 276.488281 C 494.460938 277.3125 495.675781 277.554688 497.316406 277.648438 L 498.546875 277.644531 L 499.789062 277.648438 L 500.789062 277.582031 Z M 501.3125 277.058594 "/><path style=" stroke:none;fill-rule:nonzero;fill:#d0e4d6;fill-opacity:1;" d="M 471.734375 147.722656 L 471.378906 146.5 C 470.582031 144.003906 469.484375 142.1875 467.777344 140.203125 C 466.949219 139.515625 466.949219 139.515625 465.921875 139.152344 C 464.214844 138.898438 462.898438 139.113281 461.222656 139.515625 C 459.5 140.394531 459.5 140.394531 458.730469 141.089844 C 457.527344 143.058594 457.484375 145.34375 457.277344 147.605469 C 457.0625 149.382812 456.640625 150.871094 456.015625 152.542969 C 455.625 153.617188 455.625 153.617188 455.496094 154.625 L 455.953125 155.734375 C 457.421875 159.488281 457.101562 163.746094 457.027344 167.710938 C 457.054688 169.046875 457.261719 170.019531 457.578125 171.296875 C 457.695312 172.730469 457.792969 174.160156 457.871094 175.59375 L 457.941406 176.773438 C 457.996094 177.726562 458.046875 178.679688 458.101562 179.632812 L 460.703125 180.675781 L 460.183594 182.238281 C 460.066406 183.113281 459.96875 183.992188 459.882812 184.871094 C 459.105469 192.195312 458.324219 199.082031 454.023438 205.300781 C 453.410156 206.210938 452.953125 207.136719 452.46875 208.125 C 451.03125 210.304688 449.464844 211.289062 447.167969 212.457031 C 446.308594 212.832031 445.449219 213.195312 444.5625 213.5 L 444.5625 214.539062 C 450.28125 214.199219 454.921875 211.851562 459.660156 208.808594 C 464.175781 205.539062 466.972656 200.148438 469.277344 195.175781 C 475.261719 179.726562 476.476562 163.578125 471.734375 147.722656 "/><path style=" stroke:none;fill-rule:nonzero;fill:#bfc8d3;fill-opacity:1;" d="M 183.730469 221.835938 C 183.566406 220.5625 183.566406 220.5625 183.210938 219.230469 L 182.167969 218.1875 L 181.128906 219.230469 L 181.648438 220.792969 L 179.566406 221.3125 C 179.496094 219.742188 179.464844 218.472656 179.988281 216.980469 L 180.605469 216.101562 L 182.167969 215.582031 L 181.648438 213.5 L 180.605469 213.5 C 179.761719 214.476562 179.761719 214.476562 179.046875 215.582031 L 179.046875 216.625 L 177.875 217.078125 C 176.441406 217.667969 176.441406 217.667969 175.488281 218.1875 C 174.167969 218.796875 172.960938 219.023438 171.527344 219.261719 C 169.6875 219.570312 167.855469 219.894531 166.03125 220.269531 L 165.507812 219.230469 C 164.628906 219.359375 164.628906 219.359375 163.425781 219.75 L 162.125 220.824219 L 160.824219 221.835938 L 158.742188 221.835938 L 158.285156 220.042969 L 157.699219 218.1875 L 156.65625 217.667969 C 156.558594 218.839844 156.558594 218.839844 156.65625 220.269531 C 157.15625 220.984375 157.675781 221.679688 158.21875 222.355469 C 158.585938 223.472656 158.585938 223.472656 158.742188 224.4375 L 157.4375 224.730469 C 155.371094 225.582031 154.179688 226.671875 152.554688 228.167969 C 151.503906 229.085938 150.449219 229.816406 149.273438 230.5625 C 147.207031 231.890625 145.363281 233.414062 143.511719 235.023438 C 137.265625 240.382812 130.832031 244.054688 123.339844 247.363281 L 121.992188 247.957031 C 116.558594 250.347656 111.074219 252.609375 105.550781 254.789062 C 103.285156 255.683594 101.066406 256.628906 98.867188 257.683594 C 96.027344 259.023438 93.078125 259.730469 90.019531 260.386719 C 91.480469 261.207031 92.570312 261.59375 94.25 261.625 C 101.253906 261.449219 107.746094 259.144531 114 256.167969 C 114.976562 255.71875 115.960938 255.292969 116.957031 254.890625 C 121.304688 253.109375 125.328125 250.960938 129.390625 248.601562 C 133.164062 246.414062 136.710938 244.566406 140.875 243.242188 C 146.886719 241.257812 152.601562 238.269531 158.21875 235.378906 L 157.699219 241.109375 C 159.222656 239.585938 160.128906 238.179688 161.199219 236.339844 C 161.882812 235.230469 161.882812 235.230469 163.425781 234.339844 C 164.640625 234.296875 165.855469 234.292969 167.070312 234.339844 L 167.589844 235.378906 L 168.828125 235.171875 C 172.335938 234.578125 172.335938 234.578125 175.855469 234.078125 C 177.527344 233.808594 179.023438 233.355469 180.605469 232.773438 L 179.046875 231.734375 L 179.046875 230.691406 L 177.601562 230.273438 L 175.726562 229.714844 L 173.859375 229.164062 C 172.242188 228.722656 172.242188 228.722656 171.234375 227.566406 C 175.167969 225.523438 178.960938 223.652344 183.210938 222.355469 Z M 176.960938 231.734375 C 175.675781 231.554688 175.675781 231.554688 174.359375 231.210938 L 173.839844 230.171875 C 175.125 230.347656 175.125 230.347656 176.441406 230.691406 Z M 175.402344 223.398438 C 173.550781 225.246094 171.628906 225.996094 169.199219 226.773438 C 168.046875 227.105469 168.046875 227.105469 166.550781 227.042969 L 167.070312 225.480469 C 169.613281 223.824219 172.355469 222.597656 175.402344 222.355469 Z M 169.671875 231.734375 C 167.792969 232.863281 165.972656 233.082031 163.816406 233.359375 L 161.824219 233.625 L 160.300781 233.816406 C 161.523438 232.429688 162.699219 231.777344 164.402344 231.082031 L 165.734375 230.519531 C 167.082031 230.074219 167.082031 230.074219 168.539062 230.375 C 168.914062 230.476562 169.289062 230.582031 169.671875 230.691406 Z M 169.152344 222.355469 C 168.117188 223.550781 168.117188 223.550781 166.550781 224.4375 C 165.113281 224.613281 163.84375 224.539062 162.386719 224.4375 L 162.386719 223.398438 C 163.121094 223.042969 163.859375 222.699219 164.597656 222.355469 L 165.84375 221.769531 C 167.179688 221.191406 167.179688 221.191406 169.152344 221.3125 Z M 157.179688 231.210938 C 152.929688 233.988281 148.582031 236.539062 144.164062 239.027344 L 144.164062 237.464844 C 146.40625 235.058594 148.910156 233.683594 151.84375 232.285156 L 152.886719 231.785156 C 153.777344 231.375 154.695312 231.027344 155.617188 230.691406 Z M 157.179688 231.210938 "/><path style=" stroke:none;fill-rule:nonzero;fill:#8fb777;fill-opacity:1;" d="M 461.222656 180.15625 L 458.621094 179.632812 C 458.574219 178.765625 458.574219 178.765625 458.523438 177.882812 L 458.394531 175.59375 L 458.332031 174.445312 C 458.15625 171.523438 458.15625 171.523438 457.828125 170.261719 C 457.566406 169.152344 457.535156 168.222656 457.566406 167.085938 L 457.585938 165.875 C 457.601562 165.046875 457.621094 164.21875 457.644531 163.386719 C 457.679688 160.789062 457.363281 158.683594 456.539062 156.1875 C 456.164062 154.546875 456.164062 154.546875 456.015625 153.0625 C 456.308594 152.1875 456.605469 151.3125 456.929688 150.449219 C 457.851562 147.898438 458.273438 145.875 458.101562 143.164062 C 456.675781 144.398438 456.09375 145.554688 455.453125 147.320312 C 454.421875 150.320312 453.90625 153.234375 453.578125 156.382812 L 453.382812 158.132812 C 452.839844 163.523438 452.734375 168.90625 452.648438 174.320312 C 452.46875 184.652344 451.394531 194.894531 450.289062 205.164062 C 449.296875 205.589844 448.300781 206.015625 447.304688 206.4375 L 445.621094 207.152344 C 442.914062 208.207031 440.589844 208.417969 437.707031 208 C 435.207031 207.707031 432.925781 207.921875 430.441406 208.253906 C 426.589844 208.726562 422.878906 208.878906 419.003906 208.742188 L 417.492188 208.808594 L 415.929688 209.851562 C 418.8125 211.359375 418.8125 211.359375 420.0625 211.644531 C 421.316406 211.984375 422.214844 212.546875 423.316406 213.238281 C 425.753906 214.644531 427.714844 214.929688 430.507812 215.0625 L 430.507812 216.101562 C 431.765625 216.734375 432.566406 216.691406 433.972656 216.695312 L 435.457031 216.695312 L 437.015625 216.6875 L 438.523438 216.695312 C 441.78125 216.691406 444.972656 216.492188 448.207031 216.101562 L 448.726562 217.144531 L 449.25 215.0625 L 450.289062 215.0625 L 450.289062 213.5 L 444.5625 214.539062 L 445.605469 214.019531 L 445.605469 212.976562 L 446.710938 212.847656 C 448.59375 212.355469 449.789062 211.554688 451.332031 210.371094 C 453.507812 208.128906 454.675781 205.34375 456.015625 202.558594 C 456.550781 201.527344 457.089844 200.5 457.632812 199.472656 C 459.171875 195.894531 459.519531 192.199219 459.953125 188.359375 C 460.082031 187.238281 460.214844 186.117188 460.347656 185 L 460.515625 183.507812 C 460.683594 182.371094 461.222656 181.277344 461.222656 180.15625 "/><path style=" stroke:none;fill-rule:nonzero;fill:#5b9250;fill-opacity:1;" d="M 501.3125 277.058594 C 501.484375 273.367188 501.144531 270.136719 499.527344 266.824219 C 499.054688 265.929688 498.566406 265.050781 498.078125 264.167969 C 497.105469 262.46875 497.105469 262.46875 496.339844 260.574219 C 495.695312 259.078125 495.03125 257.894531 494.085938 256.578125 C 492.414062 254.148438 491.113281 251.59375 489.859375 248.925781 L 488.816406 248.925781 C 488.621094 250.164062 488.621094 250.164062 488.816406 252.050781 C 489.730469 253.871094 490.832031 255.554688 491.941406 257.261719 C 494.445312 261.324219 496.488281 265.972656 496.691406 270.808594 L 496.625 271.851562 C 493.058594 270.859375 490.992188 269.136719 488.347656 266.566406 L 487.253906 265.597656 L 486.214844 265.597656 L 485.171875 264.554688 L 484.261719 264.132812 C 482.035156 262.957031 480.316406 261.433594 478.925781 259.347656 L 477.363281 258.824219 C 476.398438 257.945312 475.542969 256.984375 474.660156 256.019531 C 473.105469 254.570312 471.640625 253.722656 469.75 252.769531 C 467.007812 251.488281 467.007812 251.488281 464.867188 249.445312 C 464.351562 248.199219 463.894531 246.980469 463.46875 245.703125 L 463.113281 244.667969 C 462.828125 243.832031 462.546875 242.992188 462.265625 242.152344 L 463.988281 241.988281 C 465.910156 241.632812 465.910156 241.632812 466.917969 240.816406 L 467.472656 240.070312 C 467.257812 242.660156 467.054688 244.988281 465.910156 247.363281 C 466.851562 247.265625 466.851562 247.265625 467.992188 246.84375 C 469.820312 244.320312 470.238281 241.546875 470.878906 238.546875 L 471.636719 236.941406 C 473.472656 236.148438 473.472656 236.148438 475.28125 235.902344 L 475.800781 237.464844 L 477.277344 238.140625 C 479.019531 238.914062 479.019531 238.914062 479.953125 240.546875 L 480.8125 242.25 C 481.679688 243.964844 481.679688 243.964844 482.570312 245.277344 L 484.652344 245.277344 L 485.171875 246.84375 C 485.691406 245.277344 485.691406 245.277344 485.515625 243.988281 L 485.203125 242.578125 L 484.898438 241.152344 L 484.652344 240.070312 L 483.464844 240.253906 L 482.046875 240.070312 C 481 238.78125 481 238.78125 480.195312 237.105469 C 478.789062 234.449219 477.511719 232.117188 475.089844 230.273438 C 471.535156 228.128906 471.535156 228.128906 469.226562 227.890625 L 467.992188 228.085938 C 466.644531 231.160156 465.648438 234.074219 465.125 237.398438 C 464.902344 238.652344 464.902344 238.652344 463.828125 240.070312 L 462.785156 240.070312 C 461.644531 237.144531 461.644531 237.144531 461.222656 234.078125 C 461.222656 229.472656 458.253906 224.703125 456.015625 220.792969 C 455.023438 219.394531 454.308594 218.679688 452.894531 217.667969 C 451.398438 217.730469 451.398438 217.730469 450.289062 218.1875 L 450.289062 219.230469 L 451.851562 220.269531 L 453.414062 220.269531 L 453.855469 221.195312 C 454.414062 222.273438 455.035156 223.214844 455.722656 224.210938 C 457.78125 227.523438 458.4375 231.0625 459.050781 234.878906 C 460.15625 241.738281 461.324219 248.394531 465.800781 253.933594 C 467.148438 255.492188 468.53125 256.941406 470.074219 258.304688 L 471.636719 258.824219 L 471.636719 259.867188 C 472.453125 260.601562 473.308594 261.300781 474.175781 261.984375 C 476.152344 263.5625 478.054688 265.171875 479.902344 266.898438 C 482.832031 269.574219 486.042969 271.738281 489.335938 273.933594 L 490.734375 274.902344 L 491.972656 275.757812 L 493.03125 276.488281 C 494.460938 277.3125 495.675781 277.554688 497.316406 277.648438 L 498.546875 277.644531 L 499.789062 277.648438 L 500.789062 277.582031 Z M 501.3125 277.058594 "/><path style=" stroke:none;fill-rule:nonzero;fill:#9fbd91;fill-opacity:1;" d="M 445.605469 217.667969 L 444.5625 217.144531 L 444.5625 216.101562 L 430.507812 216.101562 L 430.507812 215.0625 L 429.34375 214.773438 C 425.546875 213.847656 425.546875 213.847656 422.175781 211.933594 L 421.65625 210.894531 C 420.445312 210.691406 419.230469 210.519531 418.011719 210.371094 L 416.449219 209.851562 C 417.9375 209.105469 419.179688 209.320312 420.84375 209.363281 C 425.667969 209.433594 430.40625 208.867188 435.191406 208.289062 L 435.191406 207.765625 L 434.019531 207.761719 C 414.703125 207.578125 395.535156 205.1875 376.425781 202.496094 L 375.007812 202.296875 C 374.140625 202.175781 373.273438 202.050781 372.40625 201.925781 C 370.070312 201.597656 367.789062 201.316406 365.429688 201.515625 L 364.386719 203.078125 C 364.386719 204.121094 364.386719 204.121094 364.90625 205.164062 C 374.152344 210.398438 388.402344 211.144531 398.832031 211.464844 L 400.113281 211.445312 L 401.4375 211.433594 L 402.394531 211.414062 L 402.914062 212.457031 L 405.515625 211.933594 L 405.515625 212.976562 L 408.640625 212.457031 L 408.640625 214.019531 L 409.882812 214.15625 C 411.746094 214.359375 413.609375 214.5625 415.472656 214.769531 L 417.425781 214.980469 L 419.316406 215.1875 L 421.050781 215.378906 C 422.648438 215.582031 424.238281 215.820312 425.820312 216.101562 L 425.820312 217.144531 C 426.621094 217.574219 427.421875 217.996094 428.230469 218.414062 L 429.582031 219.128906 C 432.347656 220.316406 435.015625 220.332031 437.992188 220.304688 L 439.953125 220.289062 L 441.441406 220.269531 L 440.917969 219.230469 Z M 445.605469 217.667969 "/><path style=" stroke:none;fill-rule:nonzero;fill:#d1cec8;fill-opacity:1;" d="M 213.925781 195.785156 L 213.925781 194.742188 C 210.75 194.90625 208.308594 195.894531 205.664062 197.59375 L 204.621094 198.292969 L 203.609375 198.964844 C 201.65625 200.320312 200.273438 201.691406 198.828125 203.597656 C 197.914062 204.40625 197.914062 204.40625 196.972656 205.03125 L 196.0625 205.675781 C 195.113281 206.292969 195.113281 206.292969 193.621094 206.726562 C 193.898438 203.972656 194.773438 201.757812 196.226562 199.429688 L 197.589844 198.125 C 198.277344 197.316406 198.277344 197.316406 198.828125 196.304688 C 199.144531 194.234375 199.074219 192.207031 198.992188 190.117188 L 198.957031 188.429688 C 198.925781 187.058594 198.882812 185.691406 198.828125 184.324219 L 198.308594 184.324219 C 197.496094 187.261719 197.269531 189.605469 197.460938 192.660156 C 197.546875 194.53125 197.546875 194.53125 197.265625 196.304688 C 196.371094 197.746094 195.394531 198.769531 194.164062 199.933594 C 192.609375 201.488281 191.925781 203.175781 191.019531 205.164062 L 189.976562 206.203125 C 188.695312 206.234375 188.695312 206.234375 187.375 205.683594 C 186.167969 204.402344 186.167969 204.402344 185.292969 203.078125 L 186.203125 201.515625 C 189.992188 194.832031 192.882812 188.019531 193.175781 180.25 C 193.152344 177.964844 192.761719 175.832031 192.257812 173.609375 L 191.984375 172.394531 C 191.035156 168.378906 189.558594 164.640625 187.894531 160.878906 L 189.457031 159.316406 L 188.292969 158.238281 C 185.171875 155.28125 182.625 152.335938 180.3125 148.699219 C 179.035156 146.710938 177.949219 145.066406 176.015625 143.667969 C 175.0625 143.1875 174.097656 142.734375 173.121094 142.300781 C 171.554688 141.496094 170.589844 140.5625 169.382812 139.289062 C 168.613281 138.496094 167.84375 137.703125 167.070312 136.910156 L 166.0625 135.875 C 164.335938 134.394531 162.75 133.46875 160.511719 132.949219 C 158.347656 132.554688 156.175781 132.230469 153.996094 131.914062 C 150.023438 131.332031 146.699219 130.445312 143.121094 128.574219 C 142.492188 128.257812 141.863281 127.945312 141.230469 127.628906 C 140.1875 127.109375 139.144531 126.585938 138.101562 126.058594 C 135.386719 124.691406 132.648438 123.378906 129.878906 122.128906 L 128.742188 121.601562 C 126.175781 120.453125 123.550781 119.488281 120.734375 119.199219 C 119.558594 119.433594 119.558594 119.433594 118.652344 119.71875 C 120.230469 120.253906 121.808594 120.769531 123.40625 121.25 C 130.980469 123.59375 138.550781 126.875 145.023438 131.507812 C 147.691406 133.070312 150.570312 133.390625 153.597656 133.6875 C 157.972656 134.238281 162.242188 135.296875 165.855469 137.917969 C 166.898438 138.839844 167.855469 139.839844 168.730469 140.917969 C 171.214844 143.824219 174.070312 146.367188 177.050781 148.757812 C 181.347656 152.25 183.726562 156.882812 185.8125 161.917969 C 186.109375 162.597656 186.410156 163.277344 186.710938 163.953125 L 187.203125 165.066406 C 187.527344 165.796875 187.851562 166.527344 188.175781 167.253906 C 190.796875 173.21875 191.484375 178.851562 191.019531 185.363281 C 190.121094 189.9375 188.21875 193.90625 185.8125 197.867188 L 185.203125 198.898438 C 184.640625 199.84375 184.640625 199.84375 183.730469 200.996094 L 182.167969 201.515625 L 182.070312 199.625 C 181.847656 197.96875 181.601562 197.277344 180.671875 195.816406 C 178.472656 193.464844 175.835938 191.523438 173.316406 189.53125 C 172.878906 189.160156 172.441406 188.785156 171.992188 188.402344 C 170.730469 187.460938 169.773438 187.023438 168.273438 186.601562 C 166.441406 186.078125 166.441406 186.078125 164.988281 184.84375 C 163.632812 184.511719 163.632812 184.511719 162.058594 184.257812 L 160.476562 183.992188 L 159.261719 183.800781 L 159.78125 184.84375 C 160.542969 185.222656 161.3125 185.582031 162.09375 185.917969 C 169.691406 189.632812 175.417969 197.605469 180.605469 204.121094 L 180.085938 204.640625 L 179.046875 204.121094 L 179.566406 207.765625 L 180.445312 207.960938 C 181.664062 208.246094 181.664062 208.246094 182.753906 208.875 C 184.398438 209.375 185.183594 209.222656 186.855469 208.9375 C 188.195312 208.726562 188.195312 208.726562 189.457031 208.808594 C 191.078125 209.886719 191.816406 211.492188 192.742188 213.171875 L 193.101562 214.019531 L 194.144531 212.457031 C 193.65625 210.378906 192.914062 208.871094 191.539062 207.246094 L 195.703125 209.332031 C 196.617188 208.777344 196.617188 208.777344 197.789062 207.765625 L 198.601562 206.140625 C 200.535156 202.527344 204.484375 200.117188 207.808594 197.867188 C 209.671875 196.746094 211.253906 196.480469 213.40625 196.304688 Z M 177.484375 197.347656 C 175.84375 196.90625 175.84375 196.90625 174.523438 195.652344 L 173.316406 194.222656 C 173.097656 192.808594 173.097656 192.808594 173.316406 191.617188 C 174.75 192.179688 175.5 192.761719 176.570312 193.894531 L 177.484375 195.261719 Z M 177.484375 197.347656 "/><path style=" stroke:none;fill-rule:nonzero;fill:#d7dde1;fill-opacity:1;" d="M 232.148438 202.558594 L 231.628906 200.996094 C 230.402344 200.597656 230.402344 200.597656 228.503906 200.472656 C 226.628906 201.035156 224.878906 201.839844 223.101562 202.65625 L 221.671875 203.285156 C 219.503906 204.25 217.371094 205.257812 215.261719 206.347656 C 213.457031 207.351562 213.457031 207.351562 211.484375 207.441406 L 209.761719 207.765625 C 208.882812 208.800781 208.015625 209.84375 207.160156 210.894531 C 205.371094 211.503906 205.371094 211.503906 203.515625 211.933594 C 202.402344 212.558594 201.421875 213.261719 200.390625 214.019531 L 200.910156 216.101562 L 199.347656 215.582031 C 198.710938 213.753906 198.710938 213.753906 198.308594 211.933594 L 197.265625 212.457031 L 197.265625 218.1875 C 196.398438 219.769531 196.398438 219.769531 195.183594 220.269531 C 194.597656 221.34375 194.597656 221.34375 194.144531 222.355469 L 191.019531 222.355469 C 188.308594 226.679688 188.308594 226.679688 188.15625 229.257812 L 187.894531 231.210938 C 186.714844 232.613281 186.714844 232.613281 185.292969 233.816406 C 184.089844 235.414062 184.089844 235.414062 183.210938 236.941406 L 183.210938 239.027344 L 184.773438 239.546875 L 185.8125 240.589844 L 186.429688 239.449219 C 187.316406 237.925781 187.316406 237.925781 188.707031 236.8125 C 190.007812 235.347656 190.257812 234.71875 190.660156 232.871094 C 190.789062 232.148438 190.914062 231.421875 191.019531 230.691406 C 191.988281 230.355469 191.988281 230.355469 193.101562 230.171875 L 194.566406 230.917969 C 196.226562 231.734375 196.226562 231.734375 197.917969 231.992188 C 200.589844 231.636719 202.871094 230.691406 205.078125 229.128906 C 206.257812 227.636719 206.734375 226.320312 207.039062 224.476562 C 207.148438 223.714844 207.253906 222.953125 207.355469 222.191406 C 207.878906 218.707031 208.648438 216.355469 210.804688 213.5 L 210.804688 212.457031 L 211.894531 212.050781 C 213.601562 211.332031 215.171875 210.460938 216.789062 209.558594 C 221.738281 206.847656 226.941406 204.714844 232.148438 202.558594 "/><path style=" stroke:none;fill-rule:nonzero;fill:#accdab;fill-opacity:1;" d="M 463.402344 176.539062 L 463.382812 175.308594 C 463.363281 174.320312 463.335938 173.328125 463.304688 172.339844 L 461.742188 171.820312 L 461.777344 170.191406 C 461.742188 168.171875 461.742188 168.171875 461.417969 166.542969 L 461.222656 165.046875 L 461.746094 163.867188 C 462.394531 162.082031 462.242188 160.804688 462.035156 158.925781 C 461.921875 157.839844 461.820312 156.753906 461.742188 155.667969 L 462.265625 155.148438 C 462.339844 153.539062 462.28125 152.105469 461.972656 150.523438 C 461.683594 148.464844 461.953125 146.78125 462.265625 144.726562 L 462.265625 144.207031 L 463.304688 144.207031 C 463.386719 142.738281 463.375 141.757812 462.785156 140.394531 L 462.265625 139.515625 C 460.710938 140.238281 459.339844 140.929688 458.101562 142.121094 C 457.703125 143.761719 457.703125 143.761719 457.515625 145.671875 C 457.257812 148.113281 456.871094 150.238281 456.015625 152.542969 C 455.625 153.617188 455.625 153.617188 455.496094 154.625 L 455.953125 155.734375 C 457.421875 159.488281 457.101562 163.746094 457.027344 167.710938 C 457.054688 169.046875 457.261719 170.019531 457.578125 171.296875 C 457.695312 172.730469 457.792969 174.160156 457.871094 175.59375 L 457.941406 176.773438 C 457.996094 177.726562 458.046875 178.679688 458.101562 179.632812 L 460.703125 180.675781 L 460.183594 182.238281 C 460.066406 183.113281 459.96875 183.992188 459.882812 184.871094 C 459.105469 192.195312 458.324219 199.082031 454.023438 205.300781 C 453.410156 206.210938 452.953125 207.136719 452.46875 208.125 C 451.03125 210.304688 449.464844 211.289062 447.167969 212.457031 C 446.308594 212.832031 445.449219 213.195312 444.5625 213.5 L 444.5625 214.539062 C 449.992188 214.214844 454.132812 212.007812 458.769531 209.402344 C 459.714844 208.773438 460.449219 208.074219 461.222656 207.246094 L 460.183594 203.597656 L 457.578125 205.683594 L 456.539062 205.164062 L 457.492188 203.601562 C 458.652344 201.570312 459.363281 199.519531 460.019531 197.28125 L 460.355469 196.191406 C 461.179688 193.46875 461.820312 190.980469 461.777344 188.132812 L 461.761719 186.921875 L 461.742188 185.886719 C 461.667969 184.703125 461.667969 184.703125 462.519531 183.246094 C 463.507812 181 463.484375 178.960938 463.402344 176.539062 "/><path style=" stroke:none;fill-rule:nonzero;fill:#c5aa7e;fill-opacity:1;" d="M 193.101562 220.792969 C 193.417969 214.457031 193.417969 214.457031 192.691406 212.257812 C 191.839844 210.757812 190.820312 209.347656 189.457031 208.289062 C 188.257812 208.285156 188.257812 208.285156 186.917969 208.515625 C 185.292969 208.734375 184.378906 208.847656 182.785156 208.386719 C 181.992188 207.953125 181.203125 207.519531 180.410156 207.082031 L 179.046875 206.726562 C 175.355469 207.859375 172.054688 210.164062 169.25 212.78125 L 168.113281 214.019531 L 166.941406 215.0625 C 166.03125 216.101562 166.03125 216.101562 165.640625 217.535156 L 165.507812 218.707031 L 168.113281 219.230469 L 168.242188 218.253906 L 168.632812 217.144531 C 169.542969 216.582031 169.542969 216.582031 170.714844 216.101562 L 172.242188 214.964844 L 173.839844 214.019531 C 175.164062 214.023438 175.164062 214.023438 176.441406 214.539062 L 178.167969 215.09375 L 179.566406 215.582031 L 180.605469 213.5 L 181.648438 213.5 L 181.648438 215.582031 C 180.390625 217.015625 180.390625 217.015625 179.046875 218.1875 C 180.421875 218.949219 181.074219 219.230469 182.6875 219.230469 C 182.890625 220.089844 183.066406 220.960938 183.210938 221.835938 L 182.6875 222.875 L 184.640625 222.582031 C 186.210938 222.382812 187.425781 222.308594 188.9375 222.875 L 189.621094 221.605469 L 190.5 220.269531 L 192.0625 219.75 L 192.0625 220.792969 Z M 193.101562 220.792969 "/><path style=" stroke:none;fill-rule:nonzero;fill:#72a563;fill-opacity:1;" d="M 458.101562 185.363281 C 458.113281 183.0625 458.125 180.761719 458.132812 178.460938 L 458.144531 176.480469 L 458.152344 174.578125 L 458.160156 172.824219 C 458.109375 171.507812 457.914062 170.476562 457.578125 169.214844 C 457.550781 168.503906 457.546875 167.796875 457.566406 167.085938 L 457.585938 165.875 C 457.601562 165.046875 457.621094 164.21875 457.644531 163.386719 C 457.679688 160.789062 457.363281 158.683594 456.539062 156.1875 C 456.164062 154.546875 456.164062 154.546875 456.015625 153.0625 C 456.308594 152.1875 456.605469 151.3125 456.929688 150.449219 C 457.851562 147.898438 458.273438 145.875 458.101562 143.164062 C 456.675781 144.398438 456.09375 145.554688 455.453125 147.320312 C 454.421875 150.320312 453.90625 153.234375 453.578125 156.382812 L 453.382812 158.121094 C 452.828125 163.621094 452.710938 169.113281 452.609375 174.636719 C 452.453125 183.296875 451.726562 191.859375 450.8125 200.472656 L 452.371094 200.996094 L 452.894531 197.347656 L 454.457031 196.828125 L 454.515625 195.941406 C 454.839844 191.988281 455.652344 188.1875 456.539062 184.324219 Z M 458.101562 185.363281 "/><path style=" stroke:none;fill-rule:nonzero;fill:#89b98b;fill-opacity:1;" d="M 490.898438 248.925781 C 490.859375 246.789062 490.699219 245.328125 489.640625 243.449219 C 488.714844 242.117188 487.746094 240.816406 486.734375 239.546875 L 485.945312 238.535156 C 484.308594 236.527344 482.484375 234.832031 480.511719 233.160156 C 479.832031 232.582031 479.164062 231.988281 478.507812 231.378906 C 474.609375 227.757812 469.757812 224.460938 464.867188 222.355469 C 463.371094 222.777344 463.371094 222.777344 462.265625 223.398438 L 462.265625 225.480469 L 463.304688 225.480469 L 463.304688 226.523438 L 461.742188 226.003906 L 461.742188 227.042969 L 462.785156 227.042969 L 461.742188 231.210938 L 459.660156 227.042969 L 459.140625 228.085938 C 459.394531 229.277344 459.394531 229.277344 459.824219 230.722656 C 460.472656 232.949219 461.019531 235.203125 461.46875 237.476562 C 461.773438 238.609375 462.230469 239.5625 462.785156 240.589844 C 463.761719 240.199219 463.761719 240.199219 464.867188 239.546875 C 465.835938 237.96875 466.144531 236.480469 466.429688 234.664062 C 466.785156 232.5625 467.234375 230.609375 467.992188 228.605469 C 469.332031 228.339844 469.332031 228.339844 471.117188 228.605469 C 473.496094 229.613281 475.574219 230.855469 477.257812 232.839844 C 478.042969 234.007812 478.75 235.195312 479.445312 236.421875 C 479.941406 237.214844 480.441406 238.007812 480.941406 238.796875 C 481.3125 239.394531 481.679688 239.992188 482.046875 240.589844 L 484.652344 240.070312 L 484.132812 241.632812 C 484.535156 242.925781 484.535156 242.925781 485.140625 244.335938 L 485.738281 245.757812 L 486.214844 246.84375 L 487.253906 246.84375 L 487.773438 248.925781 Z M 490.898438 248.925781 "/><path style=" stroke:none;fill-rule:nonzero;fill:#e7e9eb;fill-opacity:1;" d="M 232.148438 202.558594 L 231.628906 200.996094 C 230.402344 200.597656 230.402344 200.597656 228.503906 200.472656 C 226.628906 201.035156 224.878906 201.839844 223.101562 202.65625 L 221.671875 203.285156 C 219.503906 204.25 217.371094 205.257812 215.261719 206.347656 C 213.457031 207.351562 213.457031 207.351562 211.484375 207.441406 L 209.761719 207.765625 C 208.882812 208.800781 208.015625 209.84375 207.160156 210.894531 C 205.371094 211.503906 205.371094 211.503906 203.515625 211.933594 C 201.722656 212.714844 201.722656 212.714844 200.390625 214.019531 C 199.921875 215.3125 199.871094 216.285156 199.9375 217.65625 C 200.914062 221.046875 203.300781 223.90625 205.597656 226.523438 L 206.636719 226.523438 L 206.886719 224.730469 C 207.539062 220.410156 208.113281 217.058594 210.804688 213.5 L 210.804688 212.457031 L 211.894531 212.050781 C 213.601562 211.332031 215.171875 210.460938 216.789062 209.558594 C 221.738281 206.847656 226.941406 204.714844 232.148438 202.558594 "/><path style=" stroke:none;fill-rule:nonzero;fill:#b5afa2;fill-opacity:1;" d="M 205.597656 205.164062 L 205.078125 204.121094 C 203.375 204.6875 202.066406 205.421875 200.652344 206.496094 C 199.476562 207.371094 198.804688 207.773438 197.363281 208.15625 L 196.226562 208.289062 L 195.183594 208.808594 L 194.242188 208.027344 L 193.101562 207.246094 L 191.539062 207.246094 L 191.996094 208.09375 C 192.6875 209.558594 193.242188 210.875 193.621094 212.457031 L 193.132812 213.890625 C 192.355469 216.269531 192.746094 218.347656 193.101562 220.792969 L 192.0625 220.792969 L 192.0625 219.75 C 191.085938 219.878906 191.085938 219.878906 189.976562 220.269531 C 189.328125 221.34375 189.328125 221.34375 188.9375 222.355469 L 187.210938 222.03125 L 185.292969 221.835938 L 183.730469 222.875 L 183.242188 224.113281 C 182.746094 225.496094 182.746094 225.496094 181.875 226.621094 C 180.039062 227.988281 178.144531 228.230469 175.921875 228.605469 L 174.328125 228.933594 L 173.316406 229.128906 L 173.316406 229.648438 C 175.308594 230.390625 176.917969 230.816406 179.046875 230.691406 L 178.523438 232.253906 C 180.050781 232.40625 181.28125 232.40625 182.710938 231.808594 C 183.414062 231.441406 184.113281 231.066406 184.808594 230.675781 C 185.832031 230.160156 186.777344 229.886719 187.894531 229.648438 L 187.375 232.253906 L 188.417969 231.210938 C 188.691406 229.949219 188.691406 229.949219 188.902344 228.445312 C 189.1875 226.789062 189.484375 225.417969 190.109375 223.851562 L 191.019531 222.875 C 192.632812 222.410156 192.632812 222.410156 194.144531 222.355469 L 194.144531 221.3125 L 195.703125 220.792969 L 196.746094 220.269531 L 197.265625 218.707031 L 198.308594 217.667969 C 198.148438 216.621094 197.976562 215.578125 197.789062 214.539062 C 197.949219 213.417969 197.949219 213.417969 198.308594 212.457031 L 198.828125 210.894531 L 200.910156 210.894531 C 201.875 209.902344 201.875 209.902344 202.796875 208.613281 C 204.105469 206.8125 204.105469 206.8125 205.597656 205.164062 "/><path style=" stroke:none;fill-rule:nonzero;fill:#5b9250;fill-opacity:1;" d="M 485.691406 246.84375 C 485.816406 244.703125 485.363281 243.117188 484.652344 241.109375 L 484.652344 240.070312 L 483.464844 240.253906 L 482.046875 240.070312 C 481 238.78125 481 238.78125 480.195312 237.105469 C 478.789062 234.449219 477.511719 232.117188 475.089844 230.273438 C 471.535156 228.128906 471.535156 228.128906 469.226562 227.890625 L 467.992188 228.085938 C 466.648438 231.148438 465.65625 234.027344 465.175781 237.34375 C 464.816406 238.707031 464.148438 239.480469 463.304688 240.589844 L 463.304688 242.152344 C 466.300781 241.242188 466.300781 241.242188 467.472656 240.070312 C 467.257812 242.660156 467.054688 244.988281 465.910156 247.363281 C 466.851562 247.265625 466.851562 247.265625 467.992188 246.84375 C 469.820312 244.320312 470.238281 241.546875 470.878906 238.546875 L 471.636719 236.941406 C 473.472656 236.148438 473.472656 236.148438 475.28125 235.902344 L 475.800781 237.464844 L 477.277344 238.140625 C 479.019531 238.914062 479.019531 238.914062 479.953125 240.546875 L 480.8125 242.25 C 481.679688 243.964844 481.679688 243.964844 482.570312 245.277344 L 484.652344 245.277344 L 485.171875 246.84375 Z M 485.691406 246.84375 "/><path style=" stroke:none;fill-rule:nonzero;fill:#d7dde0;fill-opacity:1;" d="M 193.101562 180.15625 C 192.660156 173.242188 190.5625 167.195312 187.894531 160.878906 L 189.457031 159.316406 C 188.878906 158.78125 188.878906 158.78125 188.292969 158.238281 C 185.171875 155.28125 182.625 152.335938 180.3125 148.699219 C 179.035156 146.710938 177.949219 145.066406 176.015625 143.667969 C 175.0625 143.1875 174.097656 142.734375 173.121094 142.300781 C 171.554688 141.496094 170.589844 140.5625 169.382812 139.289062 C 168.613281 138.496094 167.84375 137.703125 167.070312 136.910156 L 166.0625 135.875 C 164.335938 134.394531 162.75 133.46875 160.511719 132.949219 C 158.347656 132.554688 156.175781 132.230469 153.996094 131.914062 C 150.023438 131.332031 146.699219 130.445312 143.121094 128.574219 C 142.492188 128.257812 141.863281 127.945312 141.230469 127.628906 C 140.1875 127.109375 139.144531 126.585938 138.101562 126.058594 C 135.386719 124.691406 132.648438 123.378906 129.878906 122.128906 L 128.742188 121.601562 C 126.175781 120.453125 123.550781 119.488281 120.734375 119.199219 C 119.558594 119.433594 119.558594 119.433594 118.652344 119.71875 C 120.230469 120.253906 121.808594 120.769531 123.40625 121.25 C 130.980469 123.59375 138.550781 126.875 145.023438 131.507812 C 147.691406 133.070312 150.570312 133.390625 153.597656 133.6875 C 157.972656 134.238281 162.242188 135.296875 165.855469 137.917969 C 166.898438 138.839844 167.855469 139.839844 168.730469 140.917969 C 171.214844 143.824219 174.070312 146.367188 177.050781 148.757812 C 181.347656 152.25 183.726562 156.882812 185.8125 161.917969 C 186.109375 162.597656 186.410156 163.277344 186.710938 163.953125 L 187.203125 165.066406 C 187.527344 165.796875 187.851562 166.527344 188.175781 167.253906 C 189.582031 170.457031 190.585938 173.484375 191.085938 176.964844 L 191.347656 178.78125 L 191.539062 180.15625 Z M 193.101562 180.15625 "/><path style=" stroke:none;fill-rule:nonzero;fill:#79a85b;fill-opacity:1;" d="M 445.085938 210.894531 L 445.085938 208.808594 C 439.613281 207.949219 434.601562 207.703125 429.097656 208.386719 C 425.691406 208.804688 422.410156 208.863281 418.984375 208.742188 L 417.492188 208.808594 L 415.929688 209.851562 C 418.8125 211.359375 418.8125 211.359375 420.070312 211.644531 C 421.296875 211.980469 422.148438 212.519531 423.21875 213.207031 C 426.714844 215.195312 430.535156 215.59375 434.507812 215.710938 C 436.898438 215.628906 439.214844 215.464844 441.441406 214.539062 C 442.875 213.488281 444.105469 212.386719 445.085938 210.894531 "/><path style=" stroke:none;fill-rule:nonzero;fill:#4e822a;fill-opacity:1;" d="M 497.144531 271.851562 C 496.699219 264.804688 494.046875 259.582031 490.242188 253.730469 C 489.34375 252.0625 489.003906 250.796875 488.816406 248.925781 L 487.773438 248.925781 L 487.253906 246.84375 L 486.214844 246.84375 L 486.214844 245.277344 L 485.171875 245.800781 L 484.652344 245.277344 C 483.789062 245.089844 482.917969 244.914062 482.046875 244.757812 L 482.570312 246.84375 L 485.171875 247.363281 L 485.171875 248.40625 L 483.089844 247.882812 L 483.609375 248.925781 L 485.171875 248.925781 L 485.59375 250.195312 L 486.214844 251.53125 L 487.773438 252.050781 C 488.453125 253.207031 488.453125 253.207031 488.816406 254.65625 L 488.75 256.1875 L 488.816406 257.78125 C 489.5 258.832031 490.195312 259.875 490.898438 260.910156 C 491.203125 262.300781 491.203125 262.300781 490.898438 263.515625 L 489.335938 264.554688 L 489.335938 266.117188 L 488.003906 265.207031 C 486.832031 264.425781 485.628906 263.695312 484.390625 263.023438 C 482.546875 261.992188 481.03125 260.738281 479.445312 259.347656 C 479.585938 260.269531 479.585938 260.269531 479.964844 261.429688 C 480.816406 262.394531 480.816406 262.394531 481.886719 263.316406 C 482.230469 263.625 482.578125 263.933594 482.933594 264.25 C 484.132812 265.078125 484.132812 265.078125 485.675781 265.5625 C 487.519531 266.210938 488.414062 267.054688 489.792969 268.429688 C 492 270.511719 493.71875 271.5625 496.625 272.371094 Z M 497.144531 271.851562 "/><path style=" stroke:none;fill-rule:nonzero;fill:#7aa646;fill-opacity:1;" d="M 501.3125 277.058594 C 501.484375 273.367188 501.144531 270.136719 499.527344 266.824219 C 499.054688 265.929688 498.566406 265.050781 498.078125 264.167969 C 497.105469 262.46875 497.105469 262.46875 496.339844 260.574219 C 495.695312 259.078125 495.03125 257.894531 494.085938 256.578125 C 492.414062 254.148438 491.113281 251.59375 489.859375 248.925781 L 488.816406 248.925781 C 488.621094 250.164062 488.621094 250.164062 488.816406 252.050781 C 489.730469 253.871094 490.832031 255.554688 491.941406 257.261719 C 493.488281 259.769531 494.671875 262.277344 495.585938 265.078125 L 495.929688 266.121094 C 496.695312 268.726562 496.746094 270.761719 496.105469 273.414062 C 495.21875 274.3125 495.21875 274.3125 494.023438 274.453125 C 493.324219 274.292969 492.632812 274.117188 491.941406 273.933594 L 490.898438 274.976562 C 494.070312 277.210938 494.070312 277.210938 496.105469 277.582031 C 496.917969 277.628906 497.730469 277.648438 498.546875 277.644531 L 499.789062 277.648438 L 500.789062 277.582031 Z M 501.3125 277.058594 "/><path style=" stroke:none;fill-rule:nonzero;fill:#bbd1c0;fill-opacity:1;" d="M 463.304688 144.207031 C 463.386719 142.738281 463.375 141.757812 462.785156 140.394531 L 462.265625 139.515625 L 460.703125 140.039062 L 460.769531 141.113281 C 460.6875 142.96875 460.210938 144.515625 459.660156 146.289062 L 459.109375 148.242188 C 458.792969 149.335938 458.457031 150.421875 458.101562 151.5 C 457.894531 156.101562 457.742188 161.164062 458.917969 165.660156 C 459.226562 166.632812 459.226562 166.632812 458.847656 167.683594 L 458.621094 168.691406 L 459.660156 170.253906 L 460.703125 170.253906 L 461.222656 171.820312 L 461.742188 171.820312 C 461.78125 169.996094 461.777344 168.335938 461.417969 166.542969 L 461.222656 165.046875 L 461.746094 163.867188 C 462.394531 162.082031 462.242188 160.804688 462.035156 158.925781 C 461.921875 157.839844 461.820312 156.753906 461.742188 155.667969 L 462.265625 155.148438 C 462.339844 153.539062 462.28125 152.105469 461.972656 150.523438 C 461.683594 148.464844 461.953125 146.78125 462.265625 144.726562 L 462.265625 144.207031 Z M 463.304688 144.207031 "/><path style=" stroke:none;fill-rule:nonzero;fill:#d1bc98;fill-opacity:1;" d="M 205.597656 205.164062 L 205.078125 204.121094 C 203.375 204.6875 202.066406 205.421875 200.652344 206.496094 C 199.476562 207.371094 198.804688 207.773438 197.363281 208.15625 L 196.226562 208.289062 L 195.183594 208.808594 L 194.242188 208.027344 L 193.101562 207.246094 L 191.539062 207.246094 L 191.996094 208.09375 C 192.6875 209.558594 193.242188 210.875 193.621094 212.457031 L 193.132812 213.921875 C 192.390625 216.152344 192.726562 217.984375 193.101562 220.269531 L 196.746094 220.269531 L 197.265625 218.707031 L 198.308594 217.667969 C 198.148438 216.621094 197.976562 215.578125 197.789062 214.539062 C 197.949219 213.417969 197.949219 213.417969 198.308594 212.457031 L 198.828125 210.894531 L 200.910156 210.894531 C 201.875 209.902344 201.875 209.902344 202.796875 208.613281 C 204.105469 206.8125 204.105469 206.8125 205.597656 205.164062 "/><path style=" stroke:none;fill-rule:nonzero;fill:#488131;fill-opacity:1;" d="M 455.496094 161.398438 L 453.933594 161.398438 L 453.414062 160.355469 C 452.898438 163.40625 452.78125 166.398438 452.730469 169.488281 L 452.695312 171.050781 C 452.664062 172.683594 452.628906 174.320312 452.601562 175.953125 L 452.53125 179.292969 C 452.476562 182.011719 452.421875 184.730469 452.371094 187.449219 C 454.386719 185.992188 454.386719 185.992188 455 185.019531 C 457.558594 177.875 455.90625 168.828125 455.496094 161.398438 "/><path style=" stroke:none;fill-rule:nonzero;fill:#74635f;fill-opacity:1;" d="M 184.773438 210.371094 L 184.25 208.808594 C 183.078125 208.253906 183.078125 208.253906 181.648438 207.765625 L 180.410156 207.082031 L 179.046875 206.726562 C 175.355469 207.859375 172.054688 210.164062 169.25 212.78125 L 168.113281 214.019531 L 166.941406 215.0625 C 166.03125 216.101562 166.03125 216.101562 165.640625 217.535156 L 165.507812 218.707031 L 168.113281 219.230469 L 168.242188 218.253906 L 168.632812 217.144531 C 169.542969 216.582031 169.542969 216.582031 170.714844 216.101562 L 172.210938 214.964844 L 173.839844 214.019531 C 175.550781 214.085938 175.550781 214.085938 176.960938 214.539062 L 177.484375 212.976562 L 176.960938 211.414062 L 178.523438 209.851562 L 180.085938 210.371094 C 180.898438 210.40625 181.710938 210.417969 182.527344 210.40625 L 183.800781 210.390625 Z M 184.773438 210.371094 "/><path style=" stroke:none;fill-rule:nonzero;fill:#d8dee0;fill-opacity:1;" d="M 232.148438 202.558594 L 231.628906 200.996094 C 230.402344 200.597656 230.402344 200.597656 228.503906 200.472656 C 226.628906 201.035156 224.878906 201.839844 223.101562 202.65625 L 221.671875 203.285156 C 219.503906 204.25 217.371094 205.257812 215.265625 206.347656 C 213.453125 207.355469 213.453125 207.355469 211.453125 207.441406 L 209.761719 207.765625 C 208.492188 209.363281 208.492188 209.363281 207.679688 210.894531 L 208.71875 211.414062 L 210.28125 209.332031 L 211.117188 209.640625 C 212.433594 210.042969 213.59375 210.289062 214.96875 210.371094 C 216.898438 209.839844 218.578125 208.945312 220.335938 207.996094 C 221.296875 207.507812 222.257812 207.019531 223.21875 206.53125 L 224.609375 205.8125 C 227.058594 204.578125 229.59375 203.5625 232.148438 202.558594 "/><path style=" stroke:none;fill-rule:nonzero;fill:#c0c9d4;fill-opacity:1;" d="M 199.347656 184.324219 C 199.808594 171.847656 199.808594 171.847656 197.265625 166.609375 C 196.0625 165.109375 196.0625 165.109375 194.664062 164.003906 C 194.019531 163.347656 193.378906 162.683594 192.742188 162.015625 C 191.828125 161.0625 191.828125 161.0625 191.019531 160.355469 L 189.976562 160.355469 C 190.058594 161.992188 190.335938 163.214844 191.191406 164.617188 C 191.96875 165.679688 192.714844 166.703125 193.621094 167.652344 L 194.664062 167.652344 C 195.609375 169.660156 195.839844 171.167969 195.703125 173.382812 L 195.347656 174.945312 C 195.183594 176.507812 195.183594 176.507812 195.835938 178.101562 L 196.746094 179.632812 L 197.558594 181 C 197.808594 181.410156 198.054688 181.816406 198.308594 182.238281 C 198.660156 182.929688 199.007812 183.625 199.347656 184.324219 "/><g clip-rule="nonzero" clip-path="url(#32576be530)"><path style=" stroke:none;fill-rule:nonzero;fill:#4e822a;fill-opacity:1;" d="M 476.84375 257.261719 L 476.195312 256.539062 L 475.34375 255.570312 L 474.503906 254.617188 C 473.683594 253.644531 473.683594 253.644531 473.195312 252.5 L 472.675781 251.53125 C 471.644531 250.992188 470.601562 250.472656 469.554688 249.96875 L 468.511719 248.40625 L 468.511719 246.84375 L 465.910156 247.363281 L 466.65625 246.386719 C 467.773438 244.152344 467.851562 242.015625 467.992188 239.546875 L 466.300781 240.558594 C 464.96875 241.324219 463.800781 241.90625 462.265625 242.152344 C 462.617188 244.890625 463.433594 247.375 464.347656 249.96875 L 465.386719 249.96875 L 466.429688 251.105469 C 467.675781 252.425781 468.957031 253.109375 470.59375 253.875 C 472.800781 254.914062 474.222656 255.9375 475.800781 257.78125 Z M 455.632812 4.371094 C 455.511719 2.707031 455.589844 1.488281 456.015625 -0.109375 L 454.976562 -0.109375 L 454.457031 -1.152344 L 454.25 -0.191406 C 452.816406 8.210938 452.816406 8.210938 449.769531 16.039062 C 448.613281 17.121094 447.496094 17.828125 446.125 18.644531 L 446.125 19.6875 C 449.828125 19.183594 449.828125 19.183594 451.332031 18.125 C 451.722656 17.019531 451.722656 17.019531 451.851562 16.039062 L 453.933594 16.5625 C 456.027344 12.316406 456.117188 8.941406 455.632812 4.371094 "/></g><path style=" stroke:none;fill-rule:nonzero;fill:#aecead;fill-opacity:1;" d="M 454.976562 222.875 C 454.390625 221.636719 454.390625 221.636719 453.414062 220.269531 C 451.753906 219.585938 451.753906 219.585938 450.289062 219.230469 L 450.289062 218.1875 L 454.976562 218.1875 L 454.457031 216.101562 L 451.332031 215.582031 L 450.8125 214.019531 L 450.289062 215.0625 L 449.25 215.0625 L 448.207031 216.101562 C 446.34375 216.191406 446.34375 216.191406 444.5625 216.101562 L 444.5625 217.667969 L 440.398438 219.230469 L 440.398438 220.792969 L 441.34375 220.871094 C 442.777344 220.992188 444.207031 221.121094 445.636719 221.246094 L 447.125 221.371094 C 449.867188 221.621094 452.359375 222.011719 454.976562 222.875 "/><path style=" stroke:none;fill-rule:nonzero;fill:#5b9250;fill-opacity:1;" d="M 458.101562 185.363281 L 458.101562 180.15625 L 456.015625 179.632812 L 455.617188 180.945312 L 455.074219 182.660156 L 454.542969 184.363281 C 454.058594 185.871094 454.058594 185.871094 453.121094 186.675781 C 452.371094 187.449219 452.371094 187.449219 452.011719 188.863281 L 451.785156 190.542969 L 451.542969 192.351562 C 451.238281 195.054688 450.996094 197.761719 450.8125 200.472656 L 452.371094 200.996094 L 452.894531 197.347656 L 454.457031 196.828125 L 454.515625 195.941406 C 454.839844 191.988281 455.652344 188.183594 456.539062 184.324219 Z M 458.101562 185.363281 "/><path style=" stroke:none;fill-rule:nonzero;fill:#bcbcb8;fill-opacity:1;" d="M 183.730469 221.835938 C 183.566406 220.5625 183.566406 220.5625 183.210938 219.230469 L 182.167969 218.1875 L 181.128906 219.230469 L 181.648438 220.792969 L 179.566406 221.3125 L 179.046875 220.269531 L 178.003906 220.792969 L 178.523438 219.230469 C 176.589844 219.230469 175.9375 219.328125 174.292969 220.140625 L 173.214844 220.652344 C 172.277344 221.3125 172.277344 221.3125 171.628906 222.429688 L 171.234375 223.398438 L 175.402344 222.355469 C 174.144531 223.914062 173.199219 224.78125 171.351562 225.597656 C 169.933594 226.109375 168.507812 226.589844 167.070312 227.042969 L 167.070312 227.566406 L 168.503906 228.019531 C 169.839844 228.484375 171.035156 228.980469 172.277344 229.648438 L 172.277344 228.605469 L 171.234375 227.566406 C 175.167969 225.523438 178.960938 223.652344 183.210938 222.355469 Z M 183.730469 221.835938 "/><path style=" stroke:none;fill-rule:nonzero;fill:#c1bdaa;fill-opacity:1;" d="M 175.402344 233.816406 C 174.253906 232.527344 173.285156 231.933594 171.660156 231.375 C 171.285156 231.246094 170.914062 231.113281 170.53125 230.976562 L 169.671875 230.691406 L 169.671875 231.734375 L 160.824219 233.296875 L 162.386719 231.734375 C 162.742188 230.332031 162.742188 230.332031 162.90625 229.128906 L 159.261719 230.171875 L 159.261719 232.253906 C 158.523438 233.414062 158.523438 233.414062 157.699219 234.339844 L 158.21875 234.859375 C 158.171875 235.914062 158.09375 236.964844 157.992188 238.015625 L 157.832031 239.761719 L 157.699219 241.109375 C 159.226562 239.695312 160.160156 238.128906 161.199219 236.339844 C 161.882812 235.230469 161.882812 235.230469 163.425781 234.339844 C 164.640625 234.296875 165.855469 234.292969 167.070312 234.339844 L 167.589844 235.378906 C 168.601562 235.21875 169.609375 235.054688 170.617188 234.890625 L 172.320312 234.617188 C 173.839844 234.339844 173.839844 234.339844 175.402344 233.816406 "/><path style=" stroke:none;fill-rule:nonzero;fill:#bdd2c1;fill-opacity:1;" d="M 504.570312 271.464844 C 504.261719 268.78125 503.402344 266.195312 502.644531 263.609375 L 502.132812 261.804688 C 500.882812 257.445312 500.882812 257.445312 500.269531 256.21875 L 498.1875 257.261719 L 498.492188 258.085938 C 500.195312 262.90625 500.894531 267.425781 500.792969 272.535156 C 500.789062 274.089844 500.976562 275.542969 501.3125 277.058594 L 502.875 276.539062 C 504.1875 274.878906 504.613281 273.570312 504.570312 271.464844 "/><path style=" stroke:none;fill-rule:nonzero;fill:#77aa7c;fill-opacity:1;" d="M 469.554688 228.605469 C 469.128906 227.597656 469.128906 227.597656 468.511719 226.523438 L 466.949219 226.003906 L 466.949219 224.960938 L 464.867188 224.4375 L 464.730469 225.433594 C 464.53125 226.914062 464.324219 228.398438 464.117188 229.878906 L 463.90625 231.445312 L 463.699219 232.933594 L 463.507812 234.316406 L 463.304688 235.378906 L 462.785156 235.902344 L 460.703125 233.816406 C 460.851562 234.554688 461.003906 235.292969 461.160156 236.03125 L 461.414062 237.277344 C 461.738281 238.488281 462.183594 239.492188 462.785156 240.589844 C 463.761719 240.199219 463.761719 240.199219 464.867188 239.546875 C 465.835938 237.96875 466.144531 236.480469 466.429688 234.664062 C 466.785156 232.5625 467.234375 230.609375 467.992188 228.605469 Z M 469.554688 228.605469 "/><path style=" stroke:none;fill-rule:nonzero;fill:#aec4a5;fill-opacity:1;" d="M 246.207031 190.574219 L 246.207031 189.53125 C 237.164062 190.152344 237.164062 190.152344 233.191406 191.09375 L 232.667969 192.136719 L 230.847656 192.625 L 229.023438 193.179688 L 228.503906 194.742188 L 227.421875 194.953125 L 226 195.230469 L 224.589844 195.503906 C 223.296875 195.785156 223.296875 195.785156 221.734375 196.304688 L 221.734375 197.867188 C 224.238281 197.554688 226.394531 196.796875 228.699219 195.816406 C 233.140625 193.992188 237.246094 193.070312 242.015625 192.480469 C 243.703125 192.117188 244.820312 191.601562 246.207031 190.574219 "/><path style=" stroke:none;fill-rule:nonzero;fill:#bbd1c0;fill-opacity:1;" d="M 463.402344 176.539062 L 463.382812 175.308594 C 463.363281 174.320312 463.335938 173.328125 463.304688 172.339844 L 461.222656 172.339844 L 461.289062 174.359375 C 461.289062 176.578125 460.957031 178.570312 460.484375 180.734375 C 460.113281 182.582031 459.847656 184.441406 459.597656 186.308594 L 459.332031 188.273438 C 459 191.378906 459 191.378906 459.140625 192.660156 L 460.703125 193.699219 C 461.800781 191.019531 461.847656 188.722656 461.742188 185.886719 C 461.667969 184.703125 461.667969 184.703125 462.519531 183.246094 C 463.507812 181 463.484375 178.960938 463.402344 176.539062 "/><path style=" stroke:none;fill-rule:nonzero;fill:#5c9250;fill-opacity:1;" d="M 485.691406 246.84375 C 485.816406 244.703125 485.363281 243.117188 484.652344 241.109375 L 484.652344 240.070312 L 483.464844 240.257812 C 482.996094 240.195312 482.53125 240.132812 482.046875 240.070312 C 481 238.761719 481 238.761719 480.195312 237.074219 C 479.101562 234.984375 478.152344 233.25 476.320312 231.734375 C 475.148438 231.863281 475.148438 231.863281 474.238281 232.253906 C 474.921875 233.738281 475.511719 234.589844 476.648438 235.835938 C 479.128906 238.632812 480.785156 242.015625 482.570312 245.277344 L 484.652344 245.277344 L 485.171875 246.84375 Z M 485.691406 246.84375 "/><path style=" stroke:none;fill-rule:nonzero;fill:#bbbbb7;fill-opacity:1;" d="M 195.703125 220.792969 L 195.183594 219.75 C 194.054688 220.015625 193.101562 220.269531 192.0625 220.792969 L 192.0625 219.75 C 191.140625 219.804688 191.140625 219.804688 189.976562 220.269531 C 188.996094 221.75 188.996094 221.75 188.058594 223.59375 C 187.746094 224.199219 187.433594 224.804688 187.109375 225.429688 C 186.332031 227.042969 186.332031 227.042969 185.8125 228.605469 C 184.949219 228.960938 184.082031 229.308594 183.210938 229.648438 L 182.167969 231.210938 C 184.148438 230.863281 185.996094 230.3125 187.894531 229.648438 L 187.375 232.253906 L 188.417969 231.210938 C 188.691406 229.949219 188.691406 229.949219 188.902344 228.445312 C 189.1875 226.789062 189.484375 225.417969 190.109375 223.851562 L 191.019531 222.875 C 192.632812 222.410156 192.632812 222.410156 194.144531 222.355469 L 194.144531 221.3125 Z M 195.703125 220.792969 "/><path style=" stroke:none;fill-rule:nonzero;fill:#bac9de;fill-opacity:1;" d="M 148.847656 132.742188 L 148.847656 131.179688 C 145.664062 129.648438 142.480469 128.117188 139.292969 126.589844 C 137.265625 125.617188 135.238281 124.636719 133.21875 123.640625 C 125.203125 119.710938 125.203125 119.710938 120.734375 119.199219 C 119.523438 119.425781 119.523438 119.425781 118.652344 119.71875 C 120.230469 120.253906 121.808594 120.769531 123.40625 121.25 C 131.027344 123.609375 138.59375 126.929688 145.125 131.558594 C 146.367188 132.296875 147.425781 132.539062 148.847656 132.742188 "/><path style=" stroke:none;fill-rule:nonzero;fill:#74a664;fill-opacity:1;" d="M 428.425781 209.332031 L 428.425781 208.808594 C 426.632812 208.777344 424.84375 208.761719 423.054688 208.742188 L 421.515625 208.71875 L 420.035156 208.707031 L 418.671875 208.691406 C 417.492188 208.808594 417.492188 208.808594 415.929688 209.851562 C 418.8125 211.359375 418.8125 211.359375 420.050781 211.640625 C 421.359375 211.996094 422.375 212.582031 423.542969 213.269531 C 424.292969 213.710938 425.050781 214.136719 425.820312 214.539062 L 426.863281 214.539062 C 426.535156 213.015625 426.035156 211.746094 425.300781 210.371094 L 426.570312 210.144531 L 427.902344 209.851562 Z M 428.425781 209.332031 "/><path style=" stroke:none;fill-rule:nonzero;fill:#bc8641;fill-opacity:1;" d="M 184.773438 210.371094 L 184.25 208.808594 C 183.078125 208.253906 183.078125 208.253906 181.648438 207.765625 L 180.410156 207.082031 L 179.046875 206.726562 C 177.125 207.3125 177.125 207.3125 175.402344 208.289062 C 174.621094 209.332031 174.621094 209.332031 174.359375 210.371094 L 174.878906 211.933594 L 175.074219 213.042969 L 175.402344 214.019531 L 176.960938 214.539062 L 177.484375 212.976562 L 176.960938 211.414062 L 178.523438 209.851562 L 180.085938 210.371094 C 180.898438 210.40625 181.710938 210.417969 182.527344 210.40625 L 183.800781 210.390625 Z M 184.773438 210.371094 "/><path style=" stroke:none;fill-rule:nonzero;fill:#bab498;fill-opacity:1;" d="M 205.597656 205.164062 L 205.078125 204.121094 C 203.375 204.6875 202.066406 205.421875 200.652344 206.496094 C 199.453125 207.386719 198.769531 207.785156 197.300781 208.191406 L 196.226562 208.289062 L 195.703125 210.894531 L 198.828125 212.457031 L 198.828125 210.894531 L 200.910156 210.894531 C 201.875 209.902344 201.875 209.902344 202.796875 208.613281 C 204.105469 206.8125 204.105469 206.8125 205.597656 205.164062 "/><path style=" stroke:none;fill-rule:nonzero;fill:#78a75a;fill-opacity:1;" d="M 460.703125 231.734375 C 459.289062 226.890625 457.515625 222.453125 454.164062 218.609375 L 452.894531 217.667969 C 451.429688 217.761719 451.429688 217.761719 450.289062 218.1875 L 450.289062 219.230469 L 451.851562 220.269531 L 453.414062 220.269531 L 453.855469 221.195312 C 454.414062 222.273438 455.035156 223.214844 455.722656 224.210938 C 457.324219 226.714844 457.972656 229.378906 458.621094 232.253906 Z M 460.703125 231.734375 "/><path style=" stroke:none;fill-rule:nonzero;fill:#b5afa1;fill-opacity:1;" d="M 185.8125 228.605469 L 185.8125 227.566406 L 182.167969 228.605469 L 181.648438 227.566406 L 178.945312 228.054688 L 177.429688 228.328125 C 176.054688 228.582031 174.6875 228.847656 173.316406 229.128906 L 173.316406 229.648438 C 175.308594 230.390625 176.917969 230.816406 179.046875 230.691406 L 178.523438 232.253906 C 180.019531 232.320312 180.019531 232.320312 181.648438 232.253906 C 182.347656 231.554688 183.042969 230.847656 183.730469 230.136719 C 184.695312 229.101562 184.695312 229.101562 185.8125 228.605469 "/><path style=" stroke:none;fill-rule:nonzero;fill:#bcb8a4;fill-opacity:1;" d="M 175.402344 233.816406 C 174.253906 232.527344 173.285156 231.933594 171.660156 231.375 L 170.53125 230.976562 L 169.671875 230.691406 L 169.671875 231.734375 L 163.425781 233.296875 L 163.425781 233.816406 L 165.214844 234.011719 L 167.070312 234.339844 L 167.589844 235.378906 C 168.601562 235.21875 169.609375 235.054688 170.617188 234.890625 L 172.320312 234.617188 C 173.839844 234.339844 173.839844 234.339844 175.402344 233.816406 "/><path style=" stroke:none;fill-rule:nonzero;fill:#aa8856;fill-opacity:1;" d="M 188.417969 221.835938 C 188.269531 220.960938 188.09375 220.09375 187.894531 219.230469 L 186.757812 219.390625 L 185.292969 219.230469 C 184.402344 218.382812 183.535156 217.515625 182.6875 216.625 C 181.484375 216.199219 181.484375 216.199219 180.605469 216.101562 L 179.046875 218.707031 C 180.339844 219.066406 181.324219 219.230469 182.6875 219.230469 C 182.890625 220.089844 183.066406 220.960938 183.210938 221.835938 L 182.6875 222.875 C 183.546875 222.804688 184.402344 222.726562 185.257812 222.648438 C 185.738281 222.605469 186.214844 222.5625 186.707031 222.519531 L 187.894531 222.355469 Z M 188.417969 221.835938 "/><path style=" stroke:none;fill-rule:nonzero;fill:#c7dabe;fill-opacity:1;" d="M 454.976562 218.1875 L 454.457031 216.101562 L 451.332031 215.582031 L 450.8125 214.019531 L 450.289062 215.0625 L 449.25 215.0625 L 448.207031 216.101562 C 446.34375 216.191406 446.34375 216.191406 444.5625 216.101562 L 444.5625 217.144531 C 448.285156 218.378906 451.097656 218.886719 454.976562 218.1875 "/><path style=" stroke:none;fill-rule:nonzero;fill:#ded6c0;fill-opacity:1;" d="M 206.117188 228.085938 C 205.804688 226 204.730469 224.671875 203.480469 223.007812 L 202.324219 221.453125 L 201.433594 220.269531 L 200.390625 221.835938 L 201.1875 222.824219 L 202.210938 224.113281 L 203.238281 225.394531 C 203.5 225.765625 203.765625 226.140625 204.035156 226.523438 L 204.035156 227.566406 L 200.910156 228.605469 L 200.910156 230.691406 C 202.949219 230.089844 204.492188 229.464844 206.117188 228.085938 "/><path style=" stroke:none;fill-rule:nonzero;fill:#9dc83b;fill-opacity:1;" d="M 450.289062 215.0625 L 450.289062 213.5 C 449.207031 213.644531 448.121094 213.796875 447.035156 213.953125 L 445.207031 214.210938 C 443.523438 214.539062 443.523438 214.539062 442.53125 215.078125 C 440.8125 215.871094 439.003906 215.828125 437.144531 215.90625 L 435.96875 215.96875 C 435.015625 216.019531 434.0625 216.0625 433.109375 216.101562 L 433.109375 216.625 C 443.503906 216.71875 443.503906 216.71875 448.207031 216.101562 L 448.726562 217.144531 L 449.25 215.0625 Z M 450.289062 215.0625 "/><path style=" stroke:none;fill-rule:nonzero;fill:#d8c7ab;fill-opacity:1;" d="M 188.417969 214.019531 L 188.417969 212.457031 C 186.589844 211.621094 185.21875 211.300781 183.210938 211.414062 L 183.210938 210.371094 L 179.566406 210.371094 L 179.566406 211.933594 C 181.898438 213.144531 183.957031 214.167969 186.625 214.148438 Z M 188.417969 214.019531 "/><path style=" stroke:none;fill-rule:nonzero;fill:#a4adbb;fill-opacity:1;" d="M 143.640625 239.546875 L 143.640625 237.464844 C 141.722656 238.308594 140.21875 239.5 138.597656 240.816406 L 137.0625 242.054688 C 135.832031 243.195312 135.832031 243.195312 135.3125 244.757812 C 137.710938 244.382812 139.828125 243.554688 142.082031 242.675781 L 141.558594 241.109375 L 142.601562 240.460938 Z M 143.640625 239.546875 "/><path style=" stroke:none;fill-rule:nonzero;fill:#73a563;fill-opacity:1;" d="M 481.007812 239.546875 C 480.195312 236.707031 478.898438 234.605469 477.101562 232.285156 L 476.320312 231.734375 C 475.183594 231.894531 475.183594 231.894531 474.238281 232.253906 C 475.109375 234.164062 476.253906 235.515625 477.65625 237.058594 C 478.425781 238.011719 478.9375 238.953125 479.445312 240.070312 Z M 481.007812 239.546875 "/><path style=" stroke:none;fill-rule:nonzero;fill:#6b534e;fill-opacity:1;" d="M 171.757812 211.933594 L 170.714844 211.414062 L 168.113281 214.019531 L 166.941406 215.0625 C 166.03125 216.101562 166.03125 216.101562 165.640625 217.535156 L 165.507812 218.707031 L 168.113281 219.230469 L 168.644531 218.03125 L 169.347656 216.460938 C 169.578125 215.949219 169.808594 215.433594 170.042969 214.902344 C 170.707031 213.433594 170.707031 213.433594 171.757812 211.933594 "/><path style=" stroke:none;fill-rule:nonzero;fill:#a7bfa6;fill-opacity:1;" d="M 433.628906 219.230469 L 433.109375 217.667969 L 432.070312 217.667969 L 432.070312 216.625 C 429.941406 216.339844 427.96875 216.101562 425.820312 216.101562 L 425.820312 217.144531 C 426.628906 217.597656 427.445312 218.042969 428.261719 218.480469 L 429.632812 219.230469 C 431.027344 219.75 431.027344 219.75 432.5 219.570312 Z M 433.628906 219.230469 "/><g clip-rule="nonzero" clip-path="url(#ca562e19e6)"><path style=" stroke:none;fill-rule:nonzero;fill:#d7dde0;fill-opacity:1;" d="M 206.636719 211.933594 L 204.554688 211.414062 C 203.441406 211.933594 203.441406 211.933594 202.34375 212.683594 L 201.230469 213.429688 L 200.390625 214.019531 C 201.300781 215.320312 201.300781 215.320312 202.472656 216.625 L 204.554688 216.625 Z M 160.300781 -341.882812 C 159.570312 -344.101562 158.503906 -345.488281 156.917969 -347.191406 L 155.664062 -348.546875 C 154.964844 -349.289062 154.253906 -350.019531 153.535156 -350.738281 C 153.175781 -349.84375 153.175781 -349.84375 153.015625 -348.65625 C 154.152344 -346.523438 155.757812 -344.621094 157.714844 -343.199219 C 158.554688 -342.71875 159.425781 -342.292969 160.300781 -341.882812 "/></g><path style=" stroke:none;fill-rule:nonzero;fill:#c7c4b2;fill-opacity:1;" d="M 213.925781 195.785156 L 213.925781 194.742188 C 211.1875 194.882812 208.957031 195.566406 206.636719 197.015625 C 204.691406 198.292969 202.796875 199.632812 200.910156 200.996094 L 201.433594 202.558594 L 202.863281 201.453125 C 206.832031 198.316406 206.832031 198.316406 211.488281 196.535156 L 213.40625 196.304688 Z M 213.925781 195.785156 "/><path style=" stroke:none;fill-rule:nonzero;fill:#c1c1bd;fill-opacity:1;" d="M 184.773438 242.675781 L 184.25 241.632812 L 183.351562 242.949219 C 180.210938 247.367188 176.898438 250.289062 172.277344 253.09375 L 172.796875 254.136719 C 177.417969 251.308594 181.101562 248.421875 184.136719 243.902344 Z M 184.773438 242.675781 "/><path style=" stroke:none;fill-rule:nonzero;fill:#9ebd90;fill-opacity:1;" d="M 458.621094 192.136719 L 457.058594 192.660156 C 456.265625 194.242188 456.34375 195.929688 456.246094 197.671875 L 456.175781 198.789062 C 456.121094 199.695312 456.070312 200.605469 456.015625 201.515625 L 457.058594 200.996094 C 457.632812 199.667969 457.632812 199.667969 458.195312 198 L 458.773438 196.347656 C 459.152344 194.699219 459.085938 193.742188 458.621094 192.136719 "/><path style=" stroke:none;fill-rule:nonzero;fill:#a25619;fill-opacity:1;" d="M 177.484375 214.019531 L 177.222656 212.847656 C 176.945312 211.316406 177.101562 210.300781 177.484375 208.808594 L 175.921875 207.765625 C 175.121094 208.398438 175.121094 208.398438 174.359375 209.332031 C 174.378906 210.492188 174.378906 210.492188 174.683594 211.738281 L 174.964844 212.996094 L 175.402344 214.019531 L 176.960938 214.539062 Z M 177.484375 214.019531 "/><path style=" stroke:none;fill-rule:nonzero;fill:#4e822a;fill-opacity:1;" d="M 475.28125 237.984375 L 475.28125 235.902344 L 472.675781 236.421875 C 472.351562 237.269531 472.351562 237.269531 472.15625 238.507812 C 472.644531 240.199219 472.644531 240.199219 473.199219 241.632812 L 474.757812 241.632812 C 474.742188 240.875 474.742188 240.875 474.726562 240.101562 L 474.757812 238.507812 Z M 475.28125 237.984375 "/><path style=" stroke:none;fill-rule:nonzero;fill:#bec8d4;fill-opacity:1;" d="M 148.847656 132.742188 L 148.847656 131.179688 L 141.039062 127.535156 L 141.039062 129.097656 C 142.085938 129.914062 142.085938 129.914062 143.480469 130.726562 L 144.851562 131.542969 C 146.207031 132.203125 147.363281 132.523438 148.847656 132.742188 "/><path style=" stroke:none;fill-rule:nonzero;fill:#c0c0bc;fill-opacity:1;" d="M 187.375 237.984375 C 187.210938 236.519531 187.210938 236.519531 186.855469 235.378906 L 185.292969 235.902344 C 184.675781 236.976562 184.675781 236.976562 184.25 237.984375 L 183.210938 237.464844 L 183.210938 239.027344 L 184.773438 239.546875 L 185.8125 240.589844 C 186.625 239.449219 186.625 239.449219 187.375 237.984375 "/><path style=" stroke:none;fill-rule:nonzero;fill:#4e822a;fill-opacity:1;" d="M 482.046875 244.757812 C 481.71875 243.882812 481.367188 243.015625 481.007812 242.152344 L 480.566406 241.070312 C 480.078125 239.972656 479.605469 238.972656 478.925781 237.984375 C 477.492188 237.464844 477.492188 237.464844 476.320312 237.464844 C 477.035156 239 477.820312 240.34375 478.925781 241.632812 L 479.964844 241.632812 L 480.128906 242.609375 L 480.488281 243.714844 Z M 482.046875 244.757812 "/><path style=" stroke:none;fill-rule:nonzero;fill:#9ebd90;fill-opacity:1;" d="M 453.933594 206.203125 L 452.371094 206.203125 C 451.722656 207.078125 451.074219 207.957031 450.46875 208.867188 C 449.5 210.230469 448.378906 211.308594 447.167969 212.457031 C 448.53125 212.164062 448.53125 212.164062 450.289062 211.414062 C 451.957031 209.859375 453.210938 208.375 453.933594 206.203125 "/><path style=" stroke:none;fill-rule:nonzero;fill:#cbd8eb;fill-opacity:1;" d="M 106.679688 259.347656 L 106.679688 258.304688 C 103.328125 258.570312 100.453125 259.203125 97.308594 260.386719 L 97.308594 260.910156 C 100.5625 260.683594 103.578125 260.378906 106.679688 259.347656 "/><path style=" stroke:none;fill-rule:nonzero;fill:#bebfbb;fill-opacity:1;" d="M 162.90625 229.128906 C 161.117188 229.550781 161.117188 229.550781 159.261719 230.171875 L 158.742188 231.734375 L 160.824219 231.734375 L 160.824219 232.773438 L 161.863281 232.773438 C 162.625 231.394531 162.90625 230.746094 162.90625 229.128906 "/><path style=" stroke:none;fill-rule:nonzero;fill:#c4c4b4;fill-opacity:1;" d="M 180.605469 232.773438 L 179.046875 231.734375 L 179.046875 230.691406 L 176.441406 230.691406 L 175.921875 233.816406 Z M 180.605469 232.773438 "/><path style=" stroke:none;fill-rule:nonzero;fill:#bcbcb9;fill-opacity:1;" d="M 188.9375 208.289062 C 188.808594 207.3125 188.808594 207.3125 188.417969 206.203125 C 187.34375 205.554688 187.34375 205.554688 186.332031 205.164062 L 185.292969 206.203125 L 186.855469 208.808594 Z M 188.9375 208.289062 "/><path style=" stroke:none;fill-rule:nonzero;fill:#579444;fill-opacity:1;" d="M 461.222656 236.941406 L 461.222656 232.773438 L 459.140625 232.253906 C 459.027344 234.261719 459.347656 235.636719 460.183594 237.464844 Z M 461.222656 236.941406 "/><path style=" stroke:none;fill-rule:nonzero;fill:#bec8d4;fill-opacity:1;" d="M 185.8125 225.480469 C 184.296875 226.078125 183.640625 226.628906 182.558594 227.890625 L 181.648438 229.128906 C 182.851562 228.996094 182.851562 228.996094 184.25 228.605469 C 185.8125 226.9375 185.8125 226.9375 185.8125 225.480469 "/><path style=" stroke:none;fill-rule:nonzero;fill:#bfbba7;fill-opacity:1;" d="M 213.925781 195.785156 L 213.925781 194.742188 L 208.71875 195.785156 L 208.71875 196.828125 C 209.492188 196.753906 210.261719 196.675781 211.03125 196.597656 C 211.460938 196.554688 211.886719 196.511719 212.332031 196.46875 L 213.40625 196.304688 Z M 213.925781 195.785156 "/><path style=" stroke:none;fill-rule:nonzero;fill:#b9ccf0;fill-opacity:1;" d="M 154.574219 236.941406 L 154.054688 235.902344 C 152.433594 236.679688 150.902344 237.566406 149.371094 238.507812 L 149.890625 239.546875 Z M 154.574219 236.941406 "/><path style=" stroke:none;fill-rule:nonzero;fill:#c0c5c7;fill-opacity:1;" d="M 176.441406 231.734375 L 173.316406 230.171875 L 173.804688 231.375 C 174.191406 232.351562 174.550781 233.339844 174.878906 234.339844 L 175.921875 234.339844 C 176.441406 232.773438 176.441406 232.773438 176.441406 231.734375 "/><path style=" stroke:none;fill-rule:nonzero;fill:#579444;fill-opacity:1;" d="M 463.304688 241.632812 L 461.742188 236.941406 L 460.703125 239.027344 C 461.058594 240.167969 461.058594 240.167969 461.742188 241.109375 Z M 463.304688 241.632812 "/><path style=" stroke:none;fill-rule:nonzero;fill:#bbbbb7;fill-opacity:1;" d="M 185.292969 241.632812 L 184.773438 240.589844 Z M 185.292969 241.632812 "/></g></svg>