<svg xmlns="http://www.w3.org/2000/svg" xmlns:xlink="http://www.w3.org/1999/xlink" width="816" zoomAndPan="magnify" viewBox="0 0 612 395.999985" height="528" preserveAspectRatio="xMidYMid meet" version="1.2"><defs><clipPath id="92f66009ab"><path d="M 321.230469 58.039062 L 481.039062 58.039062 L 481.039062 336.902344 L 321.230469 336.902344 Z M 321.230469 58.039062 "/></clipPath></defs><g id="b872b0cb32"><path style=" stroke:none;fill-rule:nonzero;fill:#fcdc59;fill-opacity:1;" d="M 204.414062 215.363281 C 204.617188 238.160156 191.953125 270.570312 155.191406 316.660156 C 151.445312 321.359375 151.582031 328.070312 155.523438 332.609375 C 159.921875 337.671875 167.535156 338.351562 172.753906 334.140625 C 206.234375 307.125 315.25 210.238281 285.855469 115.476562 C 284.613281 111.050781 282.996094 106.785156 281.039062 102.714844 C 268.160156 75.933594 240.585938 57.558594 208.773438 58.050781 C 166.308594 58.703125 131.734375 93.429688 131.257812 135.898438 C 130.789062 177.921875 163.234375 212.46875 204.414062 215.363281 "/><g clip-rule="nonzero" clip-path="url(#92f66009ab)"><path style=" stroke:none;fill-rule:nonzero;fill:#fcdc59;fill-opacity:1;" d="M 394.617188 215.363281 C 394.824219 238.160156 382.160156 270.570312 345.398438 316.660156 C 341.648438 321.359375 341.789062 328.070312 345.730469 332.609375 C 350.128906 337.671875 357.742188 338.351562 362.960938 334.140625 C 396.441406 307.125 505.457031 210.238281 476.058594 115.476562 C 474.820312 111.050781 473.203125 106.785156 471.246094 102.714844 C 458.367188 75.933594 430.792969 57.558594 398.980469 58.050781 C 356.515625 58.703125 321.941406 93.429688 321.464844 135.898438 C 320.992188 177.921875 353.4375 212.46875 394.617188 215.363281 "/></g></g></svg>